G04 EAGLE Gerber RS-274X export*
G75*
%MOMM*%
%FSLAX34Y34*%
%LPD*%
%INTop Copper*%
%IPPOS*%
%AMOC8*
5,1,8,0,0,1.08239X$1,22.5*%
G01*
G04 Define Apertures*
%ADD10R,0.700000X0.500000*%
%ADD11R,1.186400X0.597100*%
%ADD12R,1.969400X0.592200*%
%ADD13R,1.400000X1.900000*%
%ADD14R,1.800000X1.400000*%
%ADD15R,0.800000X1.500000*%
%ADD16C,1.800000*%
%ADD17C,1.600000*%
%ADD18R,0.535100X0.644000*%
%ADD19R,1.800000X0.800000*%
%ADD20C,1.348000*%
%ADD21C,1.308000*%
%ADD22R,1.473200X0.355600*%
%ADD23R,0.560000X0.629100*%
%ADD24C,0.279400*%
%ADD25R,0.629100X0.560000*%
%ADD26R,0.644000X0.535100*%
%ADD27C,1.524000*%
%ADD28R,1.408000X1.408000*%
%ADD29C,1.408000*%
%ADD30R,2.000000X2.000000*%
%ADD31C,0.152400*%
%ADD32C,0.756400*%
%ADD33C,0.304800*%
%ADD34C,0.254000*%
%ADD35C,0.406400*%
%ADD36C,0.101600*%
%ADD37C,0.203200*%
G36*
X50957Y141536D02*
X50660Y141476D01*
X47952Y141478D01*
X47752Y141504D01*
X43290Y142719D01*
X43024Y142851D01*
X39283Y145746D01*
X39088Y145970D01*
X36739Y150076D01*
X36645Y150357D01*
X36073Y154834D01*
X36067Y154931D01*
X36068Y155547D01*
X36070Y155599D01*
X36192Y157366D01*
X36109Y157616D01*
X36069Y157858D01*
X36321Y556473D01*
X36322Y556480D01*
X36322Y558800D01*
X36337Y558949D01*
X37381Y564198D01*
X37494Y564472D01*
X40468Y568922D01*
X40678Y569132D01*
X45128Y572106D01*
X45402Y572219D01*
X50651Y573263D01*
X50800Y573278D01*
X171662Y573278D01*
X171926Y573231D01*
X172184Y573072D01*
X172359Y572824D01*
X172424Y572528D01*
X172369Y572230D01*
X172201Y571977D01*
X155279Y555055D01*
X155279Y534382D01*
X166926Y522735D01*
X167079Y522515D01*
X167149Y522220D01*
X167098Y521921D01*
X166934Y521666D01*
X166684Y521494D01*
X166387Y521434D01*
X165978Y521434D01*
X164511Y520826D01*
X164231Y520768D01*
X163933Y520824D01*
X163680Y520991D01*
X148477Y536194D01*
X145165Y536194D01*
X144890Y536245D01*
X144634Y536409D01*
X144463Y536659D01*
X144403Y536956D01*
X144403Y537462D01*
X143212Y538652D01*
X136178Y538652D01*
X135159Y537633D01*
X134928Y537475D01*
X134632Y537410D01*
X134334Y537466D01*
X134081Y537633D01*
X133062Y538652D01*
X126028Y538652D01*
X124838Y537462D01*
X124838Y537210D01*
X124786Y536935D01*
X124623Y536680D01*
X124373Y536508D01*
X124076Y536448D01*
X66521Y536448D01*
X66235Y536504D01*
X65983Y536671D01*
X64722Y537932D01*
X50592Y537932D01*
X50328Y537979D01*
X50070Y538138D01*
X49895Y538386D01*
X49830Y538682D01*
X49885Y538980D01*
X50053Y539233D01*
X55837Y545017D01*
X55837Y551028D01*
X55888Y551303D01*
X56052Y551558D01*
X56302Y551730D01*
X56599Y551790D01*
X61441Y551790D01*
X61727Y551734D01*
X61980Y551567D01*
X69052Y544494D01*
X98676Y544494D01*
X98950Y544443D01*
X99206Y544279D01*
X99377Y544029D01*
X99438Y543732D01*
X99438Y543480D01*
X100628Y542290D01*
X107662Y542290D01*
X108322Y542950D01*
X108552Y543108D01*
X108849Y543173D01*
X109147Y543117D01*
X109400Y542950D01*
X110567Y541782D01*
X113533Y541782D01*
X113533Y553302D01*
X110567Y553302D01*
X109400Y552134D01*
X109169Y551976D01*
X108873Y551911D01*
X108575Y551967D01*
X108322Y552134D01*
X107662Y552794D01*
X100628Y552794D01*
X99438Y551604D01*
X99438Y551352D01*
X99386Y551077D01*
X99223Y550822D01*
X98973Y550650D01*
X98676Y550590D01*
X88366Y550590D01*
X88109Y550635D01*
X87849Y550792D01*
X87672Y551038D01*
X87604Y551334D01*
X87658Y551632D01*
X87823Y551887D01*
X88075Y552056D01*
X88552Y552254D01*
X90902Y554604D01*
X92174Y557674D01*
X92174Y560998D01*
X90902Y564068D01*
X88552Y566418D01*
X85482Y567690D01*
X82158Y567690D01*
X79088Y566418D01*
X78319Y565649D01*
X78077Y565486D01*
X77780Y565426D01*
X55300Y565426D01*
X51418Y561544D01*
X51380Y561341D01*
X51216Y561086D01*
X50966Y560914D01*
X50669Y560854D01*
X48193Y560854D01*
X47003Y559664D01*
X47003Y552980D01*
X48193Y551790D01*
X48471Y551790D01*
X48746Y551739D01*
X49001Y551575D01*
X49173Y551325D01*
X49233Y551028D01*
X49233Y548068D01*
X49177Y547782D01*
X49010Y547529D01*
X40116Y538636D01*
X40116Y514594D01*
X45625Y509085D01*
X45788Y508844D01*
X45848Y508547D01*
X45848Y504658D01*
X47038Y503468D01*
X64722Y503468D01*
X65983Y504729D01*
X66224Y504892D01*
X66521Y504952D01*
X98676Y504952D01*
X98950Y504901D01*
X99206Y504737D01*
X99377Y504487D01*
X99438Y504190D01*
X99438Y503938D01*
X100628Y502748D01*
X107662Y502748D01*
X108681Y503767D01*
X108912Y503925D01*
X109208Y503990D01*
X109506Y503935D01*
X109759Y503767D01*
X110778Y502748D01*
X117812Y502748D01*
X119003Y503938D01*
X119003Y504444D01*
X119054Y504719D01*
X119217Y504974D01*
X119467Y505146D01*
X119765Y505206D01*
X145847Y505206D01*
X146133Y505150D01*
X146386Y504983D01*
X209663Y441706D01*
X215126Y441706D01*
X215406Y441653D01*
X215660Y441487D01*
X215830Y441236D01*
X216438Y439768D01*
X218788Y437418D01*
X221858Y436146D01*
X222267Y436146D01*
X222530Y436099D01*
X222788Y435940D01*
X222964Y435692D01*
X223029Y435396D01*
X222973Y435098D01*
X222806Y434845D01*
X219456Y431495D01*
X219456Y401804D01*
X219403Y401524D01*
X219237Y401270D01*
X218986Y401100D01*
X218664Y400967D01*
X216253Y398556D01*
X214938Y395382D01*
X214790Y395152D01*
X214543Y394977D01*
X214247Y394912D01*
X213949Y394967D01*
X213696Y395135D01*
X186683Y422148D01*
X182420Y422148D01*
X182145Y422199D01*
X181890Y422363D01*
X181718Y422613D01*
X181658Y422910D01*
X181658Y423339D01*
X176959Y423339D01*
X176959Y428051D01*
X176777Y428083D01*
X176518Y428240D01*
X176340Y428486D01*
X176273Y428782D01*
X176326Y429080D01*
X176491Y429335D01*
X176743Y429504D01*
X177452Y429798D01*
X179802Y432148D01*
X180234Y433189D01*
X180386Y433423D01*
X180635Y433597D01*
X180931Y433660D01*
X181206Y433606D01*
X184542Y433606D01*
X187612Y434878D01*
X189962Y437228D01*
X191234Y440298D01*
X191234Y443622D01*
X189962Y446692D01*
X187612Y449042D01*
X184542Y450314D01*
X181218Y450314D01*
X178951Y449375D01*
X178684Y449317D01*
X178385Y449368D01*
X178129Y449532D01*
X177958Y449782D01*
X177898Y450079D01*
X177898Y453456D01*
X177591Y453762D01*
X177433Y453992D01*
X177368Y454289D01*
X177424Y454587D01*
X177591Y454840D01*
X178406Y455654D01*
X178406Y458744D01*
X167035Y458744D01*
X167035Y455654D01*
X167849Y454840D01*
X168007Y454609D01*
X168072Y454313D01*
X168016Y454015D01*
X167849Y453762D01*
X167543Y453456D01*
X167543Y446172D01*
X168429Y445285D01*
X168585Y445061D01*
X168652Y444765D01*
X168599Y444466D01*
X168434Y444212D01*
X168182Y444043D01*
X167988Y443962D01*
X165638Y441612D01*
X164366Y438542D01*
X164366Y435218D01*
X165638Y432148D01*
X165975Y431811D01*
X166128Y431591D01*
X166198Y431296D01*
X166147Y430997D01*
X165983Y430742D01*
X165733Y430570D01*
X165436Y430510D01*
X152899Y430510D01*
X152613Y430566D01*
X152360Y430733D01*
X152191Y430902D01*
X152033Y431132D01*
X151968Y431429D01*
X152024Y431727D01*
X152191Y431980D01*
X153006Y432794D01*
X153006Y435884D01*
X141635Y435884D01*
X141635Y432794D01*
X142110Y432319D01*
X142263Y432099D01*
X142332Y431804D01*
X142282Y431505D01*
X142118Y431250D01*
X141868Y431078D01*
X141571Y431018D01*
X64591Y431018D01*
X64100Y430527D01*
X63858Y430364D01*
X63561Y430304D01*
X53078Y430304D01*
X51888Y429114D01*
X51888Y413350D01*
X53078Y412160D01*
X68842Y412160D01*
X70032Y413350D01*
X70032Y422128D01*
X70083Y422403D01*
X70247Y422658D01*
X70497Y422830D01*
X70794Y422890D01*
X142249Y422890D01*
X142535Y422834D01*
X142788Y422667D01*
X143333Y422122D01*
X151307Y422122D01*
X152360Y423175D01*
X152602Y423338D01*
X152899Y423398D01*
X163077Y423398D01*
X163363Y423342D01*
X163616Y423175D01*
X164652Y422139D01*
X164810Y421909D01*
X164875Y421613D01*
X164819Y421315D01*
X164652Y421062D01*
X161389Y417799D01*
X161148Y417636D01*
X160850Y417576D01*
X157114Y417576D01*
X156828Y417632D01*
X156575Y417799D01*
X155177Y419198D01*
X147893Y419198D01*
X147587Y418891D01*
X147357Y418733D01*
X147060Y418668D01*
X146762Y418724D01*
X146509Y418891D01*
X145695Y419706D01*
X142605Y419706D01*
X142605Y408335D01*
X145695Y408335D01*
X146509Y409149D01*
X146740Y409307D01*
X147036Y409372D01*
X147334Y409316D01*
X147587Y409149D01*
X147893Y408843D01*
X149047Y408843D01*
X149310Y408796D01*
X149568Y408636D01*
X149743Y408389D01*
X149808Y408093D01*
X149753Y407795D01*
X149585Y407542D01*
X141219Y399175D01*
X140977Y399012D01*
X140680Y398952D01*
X136178Y398952D01*
X135159Y397933D01*
X134928Y397775D01*
X134632Y397710D01*
X134334Y397766D01*
X134081Y397933D01*
X133062Y398952D01*
X127897Y398952D01*
X127611Y399008D01*
X127358Y399175D01*
X125751Y400782D01*
X122681Y402054D01*
X119357Y402054D01*
X116287Y400782D01*
X113937Y398432D01*
X112665Y395362D01*
X112665Y392038D01*
X113937Y388968D01*
X116287Y386618D01*
X119357Y385346D01*
X122681Y385346D01*
X125751Y386618D01*
X127358Y388225D01*
X127600Y388388D01*
X127897Y388448D01*
X133062Y388448D01*
X134081Y389467D01*
X134312Y389625D01*
X134608Y389690D01*
X134906Y389635D01*
X135159Y389467D01*
X136178Y388448D01*
X143212Y388448D01*
X144403Y389638D01*
X144403Y390144D01*
X144454Y390419D01*
X144617Y390674D01*
X144867Y390846D01*
X145165Y390906D01*
X163181Y390906D01*
X163467Y390850D01*
X163720Y390683D01*
X169390Y385013D01*
X169543Y384793D01*
X169613Y384498D01*
X169562Y384199D01*
X169398Y383944D01*
X169148Y383772D01*
X168851Y383712D01*
X168537Y383712D01*
X168251Y383768D01*
X167998Y383935D01*
X166391Y385542D01*
X163321Y386814D01*
X159997Y386814D01*
X156927Y385542D01*
X154577Y383192D01*
X153305Y380122D01*
X153305Y376798D01*
X154577Y373728D01*
X156927Y371378D01*
X159997Y370106D01*
X163321Y370106D01*
X166391Y371378D01*
X167998Y372985D01*
X168240Y373148D01*
X168537Y373208D01*
X173702Y373208D01*
X174721Y374227D01*
X174952Y374385D01*
X175248Y374450D01*
X175546Y374395D01*
X175799Y374227D01*
X176818Y373208D01*
X178844Y373208D01*
X179119Y373157D01*
X179374Y372993D01*
X179546Y372743D01*
X179606Y372446D01*
X179606Y369178D01*
X180878Y366108D01*
X182216Y364770D01*
X182369Y364550D01*
X182439Y364255D01*
X182388Y363956D01*
X182224Y363701D01*
X181974Y363529D01*
X181677Y363469D01*
X176638Y363469D01*
X141586Y328417D01*
X141344Y328254D01*
X141047Y328194D01*
X67674Y328194D01*
X67399Y328245D01*
X67144Y328409D01*
X66972Y328659D01*
X66912Y328956D01*
X66912Y330242D01*
X65795Y331359D01*
X65637Y331589D01*
X65572Y331885D01*
X65628Y332183D01*
X65795Y332436D01*
X68096Y334737D01*
X70290Y340034D01*
X70290Y345766D01*
X68096Y351063D01*
X65795Y353364D01*
X65637Y353594D01*
X65572Y353890D01*
X65628Y354189D01*
X65795Y354441D01*
X66912Y355558D01*
X66912Y356844D01*
X66963Y357119D01*
X67127Y357374D01*
X67377Y357546D01*
X67674Y357606D01*
X108022Y357606D01*
X108308Y357550D01*
X108561Y357383D01*
X116445Y349499D01*
X116608Y349257D01*
X116668Y348960D01*
X116668Y344458D01*
X117328Y343798D01*
X117486Y343568D01*
X117551Y343271D01*
X117495Y342973D01*
X117328Y342720D01*
X116160Y341553D01*
X116160Y338587D01*
X127680Y338587D01*
X127680Y341553D01*
X126512Y342720D01*
X126354Y342951D01*
X126289Y343247D01*
X126345Y343545D01*
X126512Y343798D01*
X127172Y344458D01*
X127172Y351492D01*
X125982Y352683D01*
X121479Y352683D01*
X121193Y352738D01*
X120941Y352906D01*
X110652Y363194D01*
X67674Y363194D01*
X67399Y363245D01*
X67144Y363409D01*
X66972Y363659D01*
X66912Y363956D01*
X66912Y365242D01*
X65722Y366432D01*
X46038Y366432D01*
X44848Y365242D01*
X44848Y355558D01*
X45965Y354441D01*
X46123Y354211D01*
X46188Y353915D01*
X46132Y353617D01*
X45965Y353364D01*
X43664Y351063D01*
X41470Y345766D01*
X41470Y340034D01*
X43664Y334737D01*
X45965Y332436D01*
X46123Y332206D01*
X46188Y331910D01*
X46132Y331611D01*
X45965Y331359D01*
X44848Y330242D01*
X44848Y320558D01*
X46038Y319368D01*
X65722Y319368D01*
X66912Y320558D01*
X66912Y321844D01*
X66963Y322119D01*
X67127Y322374D01*
X67377Y322546D01*
X67674Y322606D01*
X143677Y322606D01*
X178729Y357658D01*
X178971Y357821D01*
X179268Y357881D01*
X192106Y357881D01*
X192381Y357830D01*
X192636Y357666D01*
X192808Y357416D01*
X192858Y357168D01*
X193887Y356139D01*
X194045Y355908D01*
X194110Y355612D01*
X194055Y355314D01*
X193887Y355061D01*
X192868Y354042D01*
X192868Y349778D01*
X192812Y349492D01*
X192645Y349239D01*
X191038Y347632D01*
X189766Y344562D01*
X189766Y341238D01*
X191038Y338168D01*
X193388Y335818D01*
X196458Y334546D01*
X199782Y334546D01*
X202852Y335818D01*
X204267Y337233D01*
X204487Y337386D01*
X204782Y337456D01*
X205081Y337405D01*
X205336Y337241D01*
X205508Y336991D01*
X205568Y336694D01*
X205568Y331758D01*
X206228Y331098D01*
X206386Y330868D01*
X206451Y330571D01*
X206395Y330273D01*
X206228Y330020D01*
X205060Y328853D01*
X205060Y325887D01*
X216580Y325887D01*
X216580Y328853D01*
X215412Y330020D01*
X215254Y330251D01*
X215189Y330547D01*
X215245Y330845D01*
X215412Y331098D01*
X216072Y331758D01*
X216072Y338792D01*
X214882Y339983D01*
X214376Y339983D01*
X214101Y340034D01*
X213846Y340197D01*
X213674Y340447D01*
X213614Y340745D01*
X213614Y359202D01*
X213670Y359488D01*
X213837Y359741D01*
X216921Y362825D01*
X217163Y362988D01*
X217460Y363048D01*
X221962Y363048D01*
X222981Y364067D01*
X223212Y364225D01*
X223508Y364290D01*
X223806Y364235D01*
X224059Y364067D01*
X225078Y363048D01*
X228862Y363048D01*
X229148Y362992D01*
X229400Y362825D01*
X229767Y362458D01*
X230576Y362458D01*
X230857Y362405D01*
X231111Y362239D01*
X231280Y361988D01*
X231678Y361028D01*
X234028Y358678D01*
X237098Y357406D01*
X240422Y357406D01*
X243492Y358678D01*
X245842Y361028D01*
X247114Y364098D01*
X247114Y367422D01*
X245842Y370492D01*
X243492Y372842D01*
X240422Y374114D01*
X237098Y374114D01*
X234028Y372842D01*
X233964Y372778D01*
X233733Y372620D01*
X233437Y372555D01*
X233139Y372611D01*
X232886Y372778D01*
X232112Y373552D01*
X225078Y373552D01*
X224059Y372533D01*
X223828Y372375D01*
X223532Y372310D01*
X223234Y372366D01*
X222981Y372533D01*
X221962Y373552D01*
X217819Y373552D01*
X217533Y373608D01*
X217280Y373775D01*
X214091Y376964D01*
X213928Y377206D01*
X213868Y377503D01*
X213868Y390771D01*
X213913Y391029D01*
X214070Y391288D01*
X214316Y391466D01*
X214612Y391533D01*
X214910Y391480D01*
X215165Y391315D01*
X215334Y391063D01*
X216253Y388844D01*
X218664Y386433D01*
X221815Y385128D01*
X225225Y385128D01*
X228376Y386433D01*
X230787Y388844D01*
X232092Y391995D01*
X232092Y395405D01*
X230787Y398556D01*
X228376Y400967D01*
X228054Y401100D01*
X227816Y401257D01*
X227644Y401507D01*
X227584Y401804D01*
X227584Y427813D01*
X227640Y428099D01*
X227807Y428352D01*
X252984Y453529D01*
X252984Y471583D01*
X212503Y512064D01*
X189407Y512064D01*
X189121Y512120D01*
X188868Y512287D01*
X163630Y537526D01*
X163467Y537767D01*
X163407Y538064D01*
X163407Y551372D01*
X163462Y551658D01*
X163630Y551911D01*
X176138Y564419D01*
X176379Y564582D01*
X176676Y564642D01*
X330995Y564642D01*
X331281Y564586D01*
X331534Y564419D01*
X357813Y538140D01*
X357974Y537904D01*
X358036Y537607D01*
X357978Y537309D01*
X357268Y535594D01*
X357268Y531206D01*
X358948Y527151D01*
X362051Y524048D01*
X366106Y522368D01*
X370494Y522368D01*
X374549Y524048D01*
X377652Y527151D01*
X379332Y531206D01*
X379332Y535594D01*
X377652Y539649D01*
X374549Y542752D01*
X370494Y544432D01*
X366106Y544432D01*
X364391Y543722D01*
X364111Y543664D01*
X363813Y543719D01*
X363560Y543887D01*
X335470Y571977D01*
X335317Y572197D01*
X335247Y572492D01*
X335298Y572791D01*
X335462Y573046D01*
X335712Y573218D01*
X336009Y573278D01*
X432163Y573278D01*
X432421Y573233D01*
X432680Y573076D01*
X432858Y572830D01*
X432925Y572534D01*
X432872Y572236D01*
X432706Y571982D01*
X432455Y571812D01*
X429381Y570539D01*
X426665Y567823D01*
X425196Y564276D01*
X425196Y545196D01*
X426665Y541649D01*
X429381Y538933D01*
X431584Y538021D01*
X431822Y537864D01*
X431994Y537614D01*
X432054Y537317D01*
X432054Y531481D01*
X438517Y525018D01*
X475762Y525018D01*
X476048Y524962D01*
X476301Y524795D01*
X503713Y497383D01*
X503876Y497141D01*
X503936Y496844D01*
X503936Y478322D01*
X503885Y478047D01*
X503721Y477792D01*
X503471Y477620D01*
X503174Y477560D01*
X498522Y477560D01*
X497332Y476370D01*
X497332Y471130D01*
X497424Y471039D01*
X497582Y470808D01*
X497647Y470512D01*
X497591Y470214D01*
X497424Y469961D01*
X497332Y469870D01*
X497332Y469344D01*
X497285Y469080D01*
X497126Y468822D01*
X496878Y468647D01*
X496582Y468582D01*
X496284Y468637D01*
X496031Y468805D01*
X493237Y471599D01*
X493074Y471840D01*
X493014Y472138D01*
X493014Y496457D01*
X485431Y504040D01*
X485271Y504276D01*
X485208Y504573D01*
X485266Y504871D01*
X485874Y506338D01*
X485874Y509662D01*
X484602Y512732D01*
X482252Y515082D01*
X479182Y516354D01*
X475858Y516354D01*
X472788Y515082D01*
X470438Y512732D01*
X469166Y509662D01*
X469166Y509253D01*
X469119Y508990D01*
X468960Y508732D01*
X468712Y508556D01*
X468416Y508491D01*
X468118Y508547D01*
X467865Y508714D01*
X456669Y519910D01*
X396579Y519910D01*
X360426Y483757D01*
X360426Y472215D01*
X360381Y471958D01*
X360224Y471698D01*
X359978Y471521D01*
X359682Y471454D01*
X359384Y471507D01*
X359130Y471672D01*
X358960Y471924D01*
X357787Y474756D01*
X355376Y477167D01*
X352225Y478472D01*
X348815Y478472D01*
X345664Y477167D01*
X343253Y474756D01*
X341948Y471605D01*
X341948Y468195D01*
X343253Y465044D01*
X345664Y462633D01*
X348815Y461328D01*
X352225Y461328D01*
X355376Y462633D01*
X357787Y465044D01*
X358960Y467876D01*
X359100Y468097D01*
X359345Y468276D01*
X359640Y468346D01*
X359939Y468295D01*
X360194Y468132D01*
X360366Y467882D01*
X360426Y467585D01*
X360426Y458673D01*
X360370Y458387D01*
X360203Y458134D01*
X358930Y456861D01*
X358930Y406739D01*
X372903Y392766D01*
X373066Y392524D01*
X373126Y392227D01*
X373126Y382473D01*
X373070Y382187D01*
X372903Y381934D01*
X362286Y371317D01*
X362044Y371154D01*
X361747Y371094D01*
X351993Y371094D01*
X351707Y371150D01*
X351454Y371317D01*
X333198Y389573D01*
X333038Y389809D01*
X332975Y390106D01*
X333033Y390404D01*
X333692Y391995D01*
X333692Y395405D01*
X332387Y398556D01*
X329976Y400967D01*
X326825Y402272D01*
X323415Y402272D01*
X320264Y400967D01*
X317853Y398556D01*
X316548Y395405D01*
X316548Y391995D01*
X317853Y388844D01*
X320264Y386433D01*
X323415Y385128D01*
X326825Y385128D01*
X328416Y385787D01*
X328696Y385845D01*
X328994Y385789D01*
X329247Y385622D01*
X349363Y365506D01*
X364377Y365506D01*
X378429Y379558D01*
X378649Y379711D01*
X378944Y379781D01*
X379243Y379730D01*
X379498Y379566D01*
X379670Y379316D01*
X379730Y379019D01*
X379730Y363677D01*
X379674Y363391D01*
X379507Y363138D01*
X368382Y352013D01*
X368140Y351850D01*
X367843Y351790D01*
X295097Y351790D01*
X294811Y351846D01*
X294558Y352013D01*
X275477Y371094D01*
X270014Y371094D01*
X269734Y371147D01*
X269480Y371313D01*
X269310Y371564D01*
X268702Y373032D01*
X266352Y375382D01*
X263282Y376654D01*
X259958Y376654D01*
X256888Y375382D01*
X254538Y373032D01*
X253266Y369962D01*
X253266Y366638D01*
X254538Y363568D01*
X256888Y361218D01*
X259958Y359946D01*
X263282Y359946D01*
X266352Y361218D01*
X268702Y363568D01*
X269310Y365036D01*
X269467Y365274D01*
X269717Y365446D01*
X270014Y365506D01*
X272847Y365506D01*
X273133Y365450D01*
X273386Y365283D01*
X292467Y346202D01*
X368543Y346202D01*
X368806Y346155D01*
X369064Y345996D01*
X369240Y345748D01*
X369305Y345452D01*
X369249Y345154D01*
X369082Y344901D01*
X231442Y207261D01*
X231200Y207098D01*
X230903Y207038D01*
X226314Y207038D01*
X226039Y207089D01*
X225784Y207253D01*
X225612Y207503D01*
X225552Y207800D01*
X225552Y213009D01*
X225603Y213283D01*
X225767Y213539D01*
X226017Y213710D01*
X226314Y213771D01*
X228874Y213771D01*
X228874Y225142D01*
X226314Y225142D01*
X226039Y225193D01*
X225784Y225356D01*
X225612Y225606D01*
X225552Y225904D01*
X225552Y314928D01*
X225520Y315302D01*
X225434Y315634D01*
X225293Y315947D01*
X225102Y316231D01*
X224865Y316480D01*
X224590Y316684D01*
X224284Y316840D01*
X223965Y316939D01*
X223479Y316992D01*
X50832Y316992D01*
X50458Y316960D01*
X50126Y316874D01*
X49813Y316733D01*
X49529Y316542D01*
X49280Y316305D01*
X49076Y316030D01*
X48920Y315724D01*
X48821Y315405D01*
X48768Y314919D01*
X48768Y146082D01*
X48800Y145708D01*
X48886Y145376D01*
X49027Y145063D01*
X49225Y144769D01*
X49378Y144598D01*
X51199Y142777D01*
X51352Y142557D01*
X51422Y142262D01*
X51371Y141963D01*
X51208Y141708D01*
X50957Y141536D01*
G37*
%LPC*%
G36*
X213706Y522368D02*
X218094Y522368D01*
X222149Y524048D01*
X225252Y527151D01*
X226932Y531206D01*
X226932Y535594D01*
X226222Y537309D01*
X226164Y537589D01*
X226219Y537887D01*
X226387Y538140D01*
X240220Y551973D01*
X240462Y552136D01*
X240759Y552196D01*
X292641Y552196D01*
X292927Y552140D01*
X293180Y551973D01*
X307013Y538140D01*
X307174Y537904D01*
X307236Y537607D01*
X307178Y537309D01*
X306468Y535594D01*
X306468Y531206D01*
X308148Y527151D01*
X311251Y524048D01*
X315306Y522368D01*
X319694Y522368D01*
X323749Y524048D01*
X326852Y527151D01*
X328532Y531206D01*
X328532Y535594D01*
X326852Y539649D01*
X323749Y542752D01*
X319694Y544432D01*
X315306Y544432D01*
X313591Y543722D01*
X313311Y543664D01*
X313013Y543719D01*
X312760Y543887D01*
X296323Y560324D01*
X237077Y560324D01*
X220640Y543887D01*
X220404Y543726D01*
X220107Y543664D01*
X219809Y543722D01*
X218094Y544432D01*
X213706Y544432D01*
X209651Y542752D01*
X206548Y539649D01*
X204868Y535594D01*
X204868Y531206D01*
X206548Y527151D01*
X209651Y524048D01*
X213706Y522368D01*
G37*
G36*
X115057Y548304D02*
X119511Y548304D01*
X119511Y551814D01*
X118023Y553302D01*
X115057Y553302D01*
X115057Y548304D01*
G37*
G36*
X115057Y541782D02*
X118023Y541782D01*
X119511Y543270D01*
X119511Y546780D01*
X115057Y546780D01*
X115057Y541782D01*
G37*
G36*
X348815Y385128D02*
X352225Y385128D01*
X355376Y386433D01*
X357787Y388844D01*
X359092Y391995D01*
X359092Y395405D01*
X357787Y398556D01*
X355376Y400967D01*
X355054Y401100D01*
X354816Y401257D01*
X354644Y401507D01*
X354584Y401804D01*
X354584Y412401D01*
X293339Y473646D01*
X293176Y473888D01*
X293116Y474185D01*
X293116Y512731D01*
X277187Y528660D01*
X277026Y528897D01*
X276964Y529193D01*
X277022Y529491D01*
X277732Y531206D01*
X277732Y535594D01*
X276052Y539649D01*
X272949Y542752D01*
X268894Y544432D01*
X264506Y544432D01*
X260451Y542752D01*
X257348Y539649D01*
X255668Y535594D01*
X255668Y531206D01*
X257348Y527151D01*
X260451Y524048D01*
X264506Y522368D01*
X268894Y522368D01*
X270609Y523078D01*
X270889Y523136D01*
X271187Y523081D01*
X271440Y522913D01*
X284765Y509588D01*
X284928Y509346D01*
X284988Y509049D01*
X284988Y470503D01*
X346233Y409258D01*
X346396Y409016D01*
X346456Y408719D01*
X346456Y401804D01*
X346403Y401524D01*
X346237Y401270D01*
X345986Y401100D01*
X345664Y400967D01*
X343253Y398556D01*
X341948Y395405D01*
X341948Y391995D01*
X343253Y388844D01*
X345664Y386433D01*
X348815Y385128D01*
G37*
G36*
X44340Y453162D02*
X67420Y453162D01*
X67420Y457452D01*
X66154Y458718D01*
X65996Y458948D01*
X65931Y459245D01*
X65987Y459543D01*
X66154Y459795D01*
X68096Y461737D01*
X70290Y467034D01*
X70290Y472766D01*
X68096Y478063D01*
X65795Y480364D01*
X65637Y480594D01*
X65572Y480890D01*
X65628Y481189D01*
X65795Y481441D01*
X66912Y482558D01*
X66912Y483844D01*
X66963Y484119D01*
X67127Y484374D01*
X67377Y484546D01*
X67674Y484606D01*
X102947Y484606D01*
X103233Y484550D01*
X103486Y484383D01*
X114009Y473860D01*
X114169Y473624D01*
X114232Y473327D01*
X114174Y473030D01*
X113566Y471562D01*
X113566Y468238D01*
X114838Y465168D01*
X117188Y462818D01*
X120258Y461546D01*
X123582Y461546D01*
X126652Y462818D01*
X129002Y465168D01*
X130274Y468238D01*
X130274Y471562D01*
X129002Y474632D01*
X126652Y476982D01*
X123582Y478254D01*
X120258Y478254D01*
X118791Y477646D01*
X118511Y477588D01*
X118213Y477644D01*
X117960Y477811D01*
X105577Y490194D01*
X67674Y490194D01*
X67399Y490245D01*
X67144Y490409D01*
X66972Y490659D01*
X66912Y490956D01*
X66912Y492242D01*
X65722Y493432D01*
X46038Y493432D01*
X44848Y492242D01*
X44848Y482558D01*
X45965Y481441D01*
X46123Y481211D01*
X46188Y480915D01*
X46132Y480617D01*
X45965Y480364D01*
X43664Y478063D01*
X41470Y472766D01*
X41470Y467034D01*
X43664Y461737D01*
X45606Y459795D01*
X45764Y459565D01*
X45829Y459269D01*
X45773Y458971D01*
X45606Y458718D01*
X44340Y457452D01*
X44340Y453162D01*
G37*
G36*
X132748Y479806D02*
X144526Y479806D01*
X144526Y491584D01*
X134236Y491584D01*
X132748Y490096D01*
X132748Y479806D01*
G37*
G36*
X146050Y479806D02*
X157828Y479806D01*
X157828Y490096D01*
X156340Y491584D01*
X146050Y491584D01*
X146050Y479806D01*
G37*
G36*
X316040Y470662D02*
X324358Y470662D01*
X324358Y478980D01*
X323314Y478980D01*
X319977Y477598D01*
X317422Y475043D01*
X316040Y471706D01*
X316040Y470662D01*
G37*
G36*
X325882Y470662D02*
X334200Y470662D01*
X334200Y471706D01*
X332818Y475043D01*
X330263Y477598D01*
X326926Y478980D01*
X325882Y478980D01*
X325882Y470662D01*
G37*
G36*
X134236Y466504D02*
X144526Y466504D01*
X144526Y478282D01*
X132748Y478282D01*
X132748Y467992D01*
X134236Y466504D01*
G37*
G36*
X146050Y466504D02*
X156340Y466504D01*
X157828Y467992D01*
X157828Y478282D01*
X146050Y478282D01*
X146050Y466504D01*
G37*
G36*
X323314Y460820D02*
X324358Y460820D01*
X324358Y469138D01*
X316040Y469138D01*
X316040Y468094D01*
X317422Y464757D01*
X319977Y462202D01*
X323314Y460820D01*
G37*
G36*
X325882Y460820D02*
X326926Y460820D01*
X330263Y462202D01*
X332818Y464757D01*
X334200Y468094D01*
X334200Y469138D01*
X325882Y469138D01*
X325882Y460820D01*
G37*
G36*
X167035Y460268D02*
X171958Y460268D01*
X171958Y464846D01*
X168522Y464846D01*
X167035Y463358D01*
X167035Y460268D01*
G37*
G36*
X173482Y460268D02*
X178406Y460268D01*
X178406Y463358D01*
X176918Y464846D01*
X173482Y464846D01*
X173482Y460268D01*
G37*
G36*
X56642Y445860D02*
X65932Y445860D01*
X67420Y447348D01*
X67420Y451638D01*
X56642Y451638D01*
X56642Y445860D01*
G37*
G36*
X45828Y445860D02*
X55118Y445860D01*
X55118Y451638D01*
X44340Y451638D01*
X44340Y447348D01*
X45828Y445860D01*
G37*
G36*
X141635Y437408D02*
X146558Y437408D01*
X146558Y441986D01*
X143122Y441986D01*
X141635Y440498D01*
X141635Y437408D01*
G37*
G36*
X148082Y437408D02*
X153006Y437408D01*
X153006Y440498D01*
X151518Y441986D01*
X148082Y441986D01*
X148082Y437408D01*
G37*
G36*
X178483Y424863D02*
X181658Y424863D01*
X181658Y425732D01*
X179352Y428038D01*
X178483Y428038D01*
X178483Y424863D01*
G37*
G36*
X136503Y414782D02*
X141081Y414782D01*
X141081Y419706D01*
X137991Y419706D01*
X136503Y418218D01*
X136503Y414782D01*
G37*
G36*
X137991Y408335D02*
X141081Y408335D01*
X141081Y413258D01*
X136503Y413258D01*
X136503Y409822D01*
X137991Y408335D01*
G37*
G36*
X51380Y396994D02*
X60198Y396994D01*
X60198Y405812D01*
X59054Y405812D01*
X55533Y404354D01*
X52838Y401659D01*
X51380Y398138D01*
X51380Y396994D01*
G37*
G36*
X61722Y396994D02*
X70540Y396994D01*
X70540Y398138D01*
X69082Y401659D01*
X66387Y404354D01*
X62866Y405812D01*
X61722Y405812D01*
X61722Y396994D01*
G37*
G36*
X61722Y386652D02*
X62866Y386652D01*
X66387Y388110D01*
X69082Y390805D01*
X70540Y394326D01*
X70540Y395470D01*
X61722Y395470D01*
X61722Y386652D01*
G37*
G36*
X59054Y386652D02*
X60198Y386652D01*
X60198Y395470D01*
X51380Y395470D01*
X51380Y394326D01*
X52838Y390805D01*
X55533Y388110D01*
X59054Y386652D01*
G37*
G36*
X117648Y332610D02*
X121158Y332610D01*
X121158Y337063D01*
X116160Y337063D01*
X116160Y334097D01*
X117648Y332610D01*
G37*
G36*
X122682Y332610D02*
X126192Y332610D01*
X127680Y334097D01*
X127680Y337063D01*
X122682Y337063D01*
X122682Y332610D01*
G37*
G36*
X211582Y319910D02*
X215092Y319910D01*
X216580Y321397D01*
X216580Y324363D01*
X211582Y324363D01*
X211582Y319910D01*
G37*
G36*
X206548Y319910D02*
X210058Y319910D01*
X210058Y324363D01*
X205060Y324363D01*
X205060Y321397D01*
X206548Y319910D01*
G37*
G36*
X288887Y275210D02*
X292878Y275210D01*
X296565Y276737D01*
X299387Y279559D01*
X300914Y283247D01*
X300914Y287238D01*
X299387Y290925D01*
X296565Y293747D01*
X292878Y295274D01*
X288887Y295274D01*
X285199Y293747D01*
X282377Y290925D01*
X280850Y287238D01*
X280850Y283247D01*
X282377Y279559D01*
X285199Y276737D01*
X288887Y275210D01*
G37*
G36*
X230398Y220218D02*
X234976Y220218D01*
X234976Y223654D01*
X233488Y225142D01*
X230398Y225142D01*
X230398Y220218D01*
G37*
G36*
X230398Y213771D02*
X233488Y213771D01*
X234976Y215258D01*
X234976Y218694D01*
X230398Y218694D01*
X230398Y213771D01*
G37*
%LPD*%
G36*
X527526Y141289D02*
X527229Y141229D01*
X216461Y141390D01*
X216198Y141437D01*
X215940Y141597D01*
X215765Y141844D01*
X215700Y142140D01*
X215755Y142438D01*
X215923Y142691D01*
X224934Y151702D01*
X225176Y151989D01*
X225350Y152285D01*
X225472Y152606D01*
X225540Y152954D01*
X225552Y153183D01*
X225552Y200688D01*
X225603Y200963D01*
X225767Y201218D01*
X226017Y201390D01*
X226314Y201450D01*
X233533Y201450D01*
X371966Y339883D01*
X372208Y340046D01*
X372505Y340106D01*
X377077Y340106D01*
X427620Y390649D01*
X427840Y390802D01*
X428135Y390872D01*
X428434Y390821D01*
X428689Y390657D01*
X428861Y390407D01*
X428921Y390110D01*
X428921Y381415D01*
X428865Y381129D01*
X428698Y380876D01*
X405376Y357555D01*
X405140Y357394D01*
X404844Y357332D01*
X404546Y357390D01*
X403976Y357626D01*
X400653Y357626D01*
X397582Y356354D01*
X395232Y354004D01*
X393960Y350933D01*
X393960Y347610D01*
X395232Y344539D01*
X397582Y342189D01*
X400653Y340918D01*
X403976Y340918D01*
X404239Y341026D01*
X404494Y341084D01*
X404794Y341037D01*
X405052Y340878D01*
X405227Y340631D01*
X405292Y340335D01*
X405237Y340036D01*
X405069Y339784D01*
X360783Y295497D01*
X360541Y295334D01*
X360244Y295274D01*
X358887Y295274D01*
X355199Y293747D01*
X352377Y290925D01*
X350850Y287238D01*
X350850Y283247D01*
X352377Y279559D01*
X355199Y276737D01*
X358887Y275210D01*
X362891Y275210D01*
X363154Y275163D01*
X363412Y275004D01*
X363588Y274756D01*
X363653Y274460D01*
X363597Y274162D01*
X363430Y273909D01*
X258280Y168759D01*
X258044Y168599D01*
X257747Y168536D01*
X257449Y168594D01*
X255745Y169300D01*
X252255Y169300D01*
X249031Y167965D01*
X246563Y165497D01*
X245228Y162273D01*
X245228Y158783D01*
X246563Y155559D01*
X249031Y153091D01*
X252255Y151756D01*
X255745Y151756D01*
X258969Y153091D01*
X261437Y155559D01*
X262772Y158783D01*
X262772Y162273D01*
X262066Y163977D01*
X262008Y164257D01*
X262064Y164555D01*
X262231Y164808D01*
X384095Y286672D01*
X384337Y286835D01*
X384634Y286895D01*
X476266Y286895D01*
X525935Y336564D01*
X525935Y452092D01*
X516351Y461675D01*
X516188Y461917D01*
X516128Y462214D01*
X516128Y463290D01*
X516179Y463565D01*
X516343Y463820D01*
X516593Y463992D01*
X516890Y464052D01*
X520601Y464052D01*
X520887Y463996D01*
X521140Y463829D01*
X528198Y456770D01*
X528361Y456529D01*
X528422Y456231D01*
X528422Y326949D01*
X528366Y326663D01*
X528198Y326410D01*
X484206Y282417D01*
X483964Y282254D01*
X483667Y282194D01*
X387271Y282194D01*
X301206Y196129D01*
X301206Y169375D01*
X301153Y169094D01*
X300987Y168840D01*
X300736Y168671D01*
X299031Y167965D01*
X296563Y165497D01*
X295228Y162273D01*
X295228Y158783D01*
X296563Y155559D01*
X299031Y153091D01*
X302255Y151756D01*
X305745Y151756D01*
X308969Y153091D01*
X311437Y155559D01*
X312772Y158783D01*
X312772Y162273D01*
X311437Y165497D01*
X308969Y167965D01*
X307264Y168671D01*
X307026Y168827D01*
X306854Y169077D01*
X306794Y169375D01*
X306794Y193499D01*
X306850Y193785D01*
X307017Y194038D01*
X389362Y276383D01*
X389604Y276546D01*
X389901Y276606D01*
X418654Y276606D01*
X418917Y276559D01*
X419175Y276400D01*
X419351Y276152D01*
X419416Y275856D01*
X419360Y275558D01*
X419193Y275305D01*
X417606Y273718D01*
X416334Y270648D01*
X416334Y267324D01*
X417606Y264254D01*
X419956Y261904D01*
X421170Y261401D01*
X421408Y261244D01*
X421580Y260994D01*
X421640Y260697D01*
X421640Y248253D01*
X421609Y248038D01*
X421527Y247884D01*
X421636Y246778D01*
X421640Y246703D01*
X421640Y245604D01*
X421699Y245525D01*
X421750Y245358D01*
X422610Y244653D01*
X422665Y244603D01*
X423442Y243825D01*
X423540Y243811D01*
X423808Y243669D01*
X423850Y243635D01*
X423906Y243584D01*
X424683Y242807D01*
X424781Y242793D01*
X424935Y242711D01*
X426041Y242820D01*
X426116Y242824D01*
X429983Y242824D01*
X430258Y242773D01*
X430513Y242609D01*
X430685Y242359D01*
X430743Y242071D01*
X431935Y240879D01*
X453313Y240879D01*
X454505Y242071D01*
X454554Y242337D01*
X454718Y242592D01*
X454968Y242764D01*
X455265Y242824D01*
X459432Y242824D01*
X459718Y242768D01*
X459971Y242601D01*
X472447Y230124D01*
X479455Y230124D01*
X479730Y230073D01*
X479985Y229909D01*
X480157Y229659D01*
X480215Y229371D01*
X481407Y228179D01*
X502785Y228179D01*
X503975Y229369D01*
X503975Y236975D01*
X502785Y238165D01*
X481407Y238165D01*
X480215Y236973D01*
X480166Y236707D01*
X480002Y236452D01*
X479752Y236280D01*
X479455Y236220D01*
X475288Y236220D01*
X475002Y236276D01*
X474749Y236443D01*
X462273Y248920D01*
X455265Y248920D01*
X454990Y248971D01*
X454735Y249135D01*
X454563Y249385D01*
X454505Y249673D01*
X453313Y250865D01*
X431935Y250865D01*
X430743Y249673D01*
X430694Y249407D01*
X430530Y249152D01*
X430280Y248980D01*
X429983Y248920D01*
X428498Y248920D01*
X428223Y248971D01*
X427968Y249135D01*
X427796Y249385D01*
X427736Y249682D01*
X427736Y260697D01*
X427789Y260977D01*
X427955Y261232D01*
X428206Y261401D01*
X429420Y261904D01*
X429444Y261928D01*
X429664Y262081D01*
X429959Y262151D01*
X430258Y262100D01*
X430513Y261936D01*
X430685Y261686D01*
X430745Y261389D01*
X430745Y254769D01*
X431935Y253579D01*
X453313Y253579D01*
X454503Y254769D01*
X454503Y262375D01*
X453313Y263565D01*
X432625Y263565D01*
X432356Y263614D01*
X432099Y263775D01*
X431926Y264024D01*
X431863Y264321D01*
X431921Y264619D01*
X433042Y267324D01*
X433042Y270648D01*
X431770Y273718D01*
X430183Y275305D01*
X430030Y275525D01*
X429960Y275820D01*
X430011Y276119D01*
X430175Y276374D01*
X430425Y276546D01*
X430722Y276606D01*
X486297Y276606D01*
X534010Y324318D01*
X534010Y458862D01*
X523231Y469640D01*
X516673Y469640D01*
X516387Y469696D01*
X516135Y469863D01*
X516037Y469961D01*
X515879Y470192D01*
X515813Y470488D01*
X515869Y470786D01*
X516037Y471039D01*
X516128Y471130D01*
X516128Y476370D01*
X514938Y477560D01*
X510286Y477560D01*
X510011Y477611D01*
X509756Y477775D01*
X509584Y478025D01*
X509524Y478322D01*
X509524Y499474D01*
X478114Y530884D01*
X475800Y530884D01*
X475745Y530829D01*
X475503Y530666D01*
X475206Y530606D01*
X441147Y530606D01*
X440861Y530662D01*
X440608Y530829D01*
X437865Y533572D01*
X437702Y533814D01*
X437642Y534111D01*
X437642Y537317D01*
X437695Y537597D01*
X437861Y537851D01*
X438112Y538021D01*
X440315Y538933D01*
X443031Y541649D01*
X444500Y545196D01*
X444500Y564276D01*
X443031Y567823D01*
X440315Y570539D01*
X437241Y571812D01*
X437020Y571952D01*
X436841Y572197D01*
X436771Y572492D01*
X436822Y572791D01*
X436985Y573046D01*
X437235Y573218D01*
X437533Y573278D01*
X457563Y573278D01*
X457821Y573233D01*
X458080Y573076D01*
X458258Y572830D01*
X458325Y572534D01*
X458272Y572236D01*
X458106Y571982D01*
X457855Y571812D01*
X454781Y570539D01*
X452065Y567823D01*
X450596Y564276D01*
X450596Y545196D01*
X452065Y541649D01*
X454781Y538933D01*
X458328Y537464D01*
X462168Y537464D01*
X465715Y538933D01*
X468431Y541649D01*
X469900Y545196D01*
X469900Y551180D01*
X469951Y551455D01*
X470115Y551710D01*
X470365Y551882D01*
X470662Y551942D01*
X472999Y551942D01*
X473285Y551886D01*
X473538Y551719D01*
X488659Y536598D01*
X488819Y536362D01*
X488882Y536065D01*
X488824Y535768D01*
X488216Y534300D01*
X488216Y530976D01*
X489488Y527906D01*
X491838Y525556D01*
X494908Y524284D01*
X498232Y524284D01*
X501302Y525556D01*
X503652Y527906D01*
X504924Y530976D01*
X504924Y534300D01*
X503652Y537370D01*
X501302Y539720D01*
X498232Y540992D01*
X494908Y540992D01*
X493441Y540384D01*
X493161Y540326D01*
X492863Y540382D01*
X492610Y540549D01*
X475629Y557530D01*
X470662Y557530D01*
X470387Y557581D01*
X470132Y557745D01*
X469960Y557995D01*
X469900Y558292D01*
X469900Y564276D01*
X468431Y567823D01*
X465715Y570539D01*
X462641Y571812D01*
X462420Y571952D01*
X462241Y572197D01*
X462171Y572492D01*
X462222Y572791D01*
X462385Y573046D01*
X462635Y573218D01*
X462933Y573278D01*
X528195Y573278D01*
X528357Y573261D01*
X528634Y573139D01*
X528842Y572918D01*
X528948Y572634D01*
X528934Y572331D01*
X528803Y572057D01*
X528576Y571856D01*
X524913Y569741D01*
X520229Y565057D01*
X516916Y559320D01*
X515202Y552921D01*
X515202Y546296D01*
X516916Y539897D01*
X520229Y534160D01*
X524913Y529475D01*
X530650Y526163D01*
X537049Y524448D01*
X543674Y524448D01*
X550073Y526163D01*
X554297Y528601D01*
X554655Y528703D01*
X554954Y528652D01*
X555209Y528488D01*
X555380Y528237D01*
X555440Y527940D01*
X554792Y185795D01*
X554746Y185533D01*
X554586Y185275D01*
X554339Y185099D01*
X554043Y185034D01*
X553744Y185090D01*
X553492Y185257D01*
X552391Y186358D01*
X546653Y189671D01*
X540254Y191385D01*
X533630Y191385D01*
X527231Y189671D01*
X521493Y186358D01*
X516809Y181674D01*
X513497Y175937D01*
X511782Y169538D01*
X511782Y162913D01*
X513497Y156514D01*
X516809Y150777D01*
X521493Y146092D01*
X527231Y142780D01*
X527426Y142727D01*
X527742Y142555D01*
X527921Y142310D01*
X527991Y142015D01*
X527940Y141716D01*
X527776Y141461D01*
X527526Y141289D01*
G37*
%LPC*%
G36*
X481407Y253579D02*
X502785Y253579D01*
X503975Y254769D01*
X503975Y262375D01*
X502785Y263565D01*
X481407Y263565D01*
X480217Y262375D01*
X480217Y254769D01*
X481407Y253579D01*
G37*
G36*
X508878Y236248D02*
X512202Y236248D01*
X515272Y237520D01*
X517622Y239870D01*
X518894Y242940D01*
X518894Y246264D01*
X517622Y249334D01*
X515272Y251684D01*
X512202Y252956D01*
X508878Y252956D01*
X505808Y251684D01*
X504426Y250302D01*
X504195Y250144D01*
X503899Y250079D01*
X503601Y250134D01*
X503348Y250302D01*
X502785Y250865D01*
X481407Y250865D01*
X480217Y249675D01*
X480217Y242069D01*
X481407Y240879D01*
X502531Y240879D01*
X502811Y240826D01*
X503065Y240660D01*
X503235Y240409D01*
X503458Y239870D01*
X505808Y237520D01*
X508878Y236248D01*
G37*
G36*
X432702Y161505D02*
X446250Y161505D01*
X447440Y162695D01*
X447440Y170349D01*
X447056Y170733D01*
X446898Y170964D01*
X446833Y171260D01*
X446889Y171558D01*
X447056Y171811D01*
X447440Y172195D01*
X447440Y179849D01*
X447056Y180233D01*
X446898Y180464D01*
X446833Y180760D01*
X446889Y181058D01*
X447056Y181311D01*
X447440Y181695D01*
X447440Y189349D01*
X446250Y190540D01*
X439085Y190540D01*
X438799Y190595D01*
X438546Y190763D01*
X419831Y209477D01*
X419668Y209719D01*
X419608Y210016D01*
X419608Y225244D01*
X419664Y225530D01*
X419831Y225783D01*
X423949Y229901D01*
X424191Y230064D01*
X424488Y230124D01*
X429983Y230124D01*
X430258Y230073D01*
X430513Y229909D01*
X430685Y229659D01*
X430743Y229371D01*
X431935Y228179D01*
X453313Y228179D01*
X454503Y229369D01*
X454503Y236975D01*
X453313Y238165D01*
X431935Y238165D01*
X430743Y236973D01*
X430694Y236707D01*
X430530Y236452D01*
X430280Y236280D01*
X429983Y236220D01*
X421647Y236220D01*
X413512Y228085D01*
X413512Y207175D01*
X431289Y189399D01*
X431452Y189157D01*
X431512Y188860D01*
X431512Y181695D01*
X431896Y181311D01*
X432054Y181080D01*
X432119Y180784D01*
X432064Y180486D01*
X431896Y180233D01*
X431512Y179849D01*
X431512Y176874D01*
X431461Y176599D01*
X431297Y176343D01*
X431047Y176172D01*
X430750Y176112D01*
X427562Y176112D01*
X427282Y176165D01*
X427028Y176330D01*
X426858Y176582D01*
X426182Y178214D01*
X424132Y180264D01*
X423974Y180495D01*
X423909Y180791D01*
X423964Y181089D01*
X424132Y181342D01*
X424240Y181450D01*
X425512Y184520D01*
X425512Y187844D01*
X424240Y190914D01*
X421890Y193264D01*
X418819Y194536D01*
X415496Y194536D01*
X412425Y193264D01*
X410843Y191682D01*
X410623Y191529D01*
X410328Y191459D01*
X410029Y191510D01*
X409774Y191673D01*
X409602Y191923D01*
X409542Y192220D01*
X409542Y214042D01*
X408352Y215232D01*
X386668Y215232D01*
X385478Y214042D01*
X385478Y192358D01*
X386668Y191168D01*
X393974Y191168D01*
X394249Y191117D01*
X394504Y190953D01*
X394676Y190703D01*
X394736Y190406D01*
X394736Y185157D01*
X394680Y184871D01*
X394513Y184618D01*
X394344Y184449D01*
X394114Y184291D01*
X393817Y184226D01*
X393519Y184282D01*
X393266Y184449D01*
X392452Y185264D01*
X389362Y185264D01*
X389362Y173893D01*
X392452Y173893D01*
X393266Y174707D01*
X393497Y174865D01*
X393793Y174930D01*
X394091Y174874D01*
X394344Y174707D01*
X394650Y174401D01*
X401934Y174401D01*
X403332Y175799D01*
X403574Y175962D01*
X403871Y176022D01*
X409984Y176022D01*
X410259Y175971D01*
X410514Y175807D01*
X410686Y175557D01*
X410746Y175260D01*
X410746Y171820D01*
X412018Y168750D01*
X414368Y166400D01*
X417438Y165128D01*
X420762Y165128D01*
X423832Y166400D01*
X426182Y168750D01*
X426301Y169037D01*
X426458Y169276D01*
X426708Y169447D01*
X427005Y169508D01*
X430750Y169508D01*
X431025Y169456D01*
X431280Y169293D01*
X431452Y169043D01*
X431512Y168746D01*
X431512Y162695D01*
X432702Y161505D01*
G37*
G36*
X430237Y221234D02*
X441862Y221234D01*
X441862Y225973D01*
X431725Y225973D01*
X430237Y224485D01*
X430237Y221234D01*
G37*
G36*
X443386Y221234D02*
X455011Y221234D01*
X455011Y224485D01*
X453523Y225973D01*
X443386Y225973D01*
X443386Y221234D01*
G37*
G36*
X481407Y215479D02*
X502785Y215479D01*
X503975Y216669D01*
X503975Y224275D01*
X502785Y225465D01*
X481407Y225465D01*
X480217Y224275D01*
X480217Y216669D01*
X481407Y215479D01*
G37*
G36*
X431725Y214971D02*
X441862Y214971D01*
X441862Y219710D01*
X430237Y219710D01*
X430237Y216459D01*
X431725Y214971D01*
G37*
G36*
X443386Y214971D02*
X453523Y214971D01*
X455011Y216459D01*
X455011Y219710D01*
X443386Y219710D01*
X443386Y214971D01*
G37*
G36*
X457990Y161505D02*
X471538Y161505D01*
X472728Y162695D01*
X472728Y162966D01*
X472779Y163241D01*
X472943Y163496D01*
X473193Y163668D01*
X473490Y163728D01*
X480309Y163728D01*
X480595Y163672D01*
X480848Y163505D01*
X481237Y163116D01*
X483551Y163116D01*
X514021Y193585D01*
X514257Y193746D01*
X514553Y193808D01*
X514851Y193750D01*
X516498Y193068D01*
X519822Y193068D01*
X522892Y194340D01*
X525242Y196690D01*
X526514Y199760D01*
X526514Y203084D01*
X525242Y206154D01*
X522892Y208504D01*
X519822Y209776D01*
X516498Y209776D01*
X513428Y208504D01*
X511078Y206154D01*
X509806Y203084D01*
X509806Y199760D01*
X510340Y198472D01*
X510398Y198193D01*
X510342Y197895D01*
X510174Y197642D01*
X482072Y169539D01*
X481830Y169376D01*
X481533Y169316D01*
X473490Y169316D01*
X473215Y169367D01*
X472960Y169531D01*
X472788Y169781D01*
X472728Y170078D01*
X472728Y170349D01*
X471538Y171540D01*
X457990Y171540D01*
X456800Y170349D01*
X456800Y162695D01*
X457990Y161505D01*
G37*
G36*
X456292Y186284D02*
X464002Y186284D01*
X464002Y191048D01*
X457780Y191048D01*
X456292Y189560D01*
X456292Y186284D01*
G37*
G36*
X465526Y186284D02*
X473236Y186284D01*
X473236Y189560D01*
X471748Y191048D01*
X465526Y191048D01*
X465526Y186284D01*
G37*
G36*
X383260Y180340D02*
X387838Y180340D01*
X387838Y185264D01*
X384748Y185264D01*
X383260Y183776D01*
X383260Y180340D01*
G37*
G36*
X465526Y179997D02*
X471748Y179997D01*
X473236Y181484D01*
X473236Y184760D01*
X465526Y184760D01*
X465526Y179997D01*
G37*
G36*
X457780Y179997D02*
X464002Y179997D01*
X464002Y184760D01*
X456292Y184760D01*
X456292Y181484D01*
X457780Y179997D01*
G37*
G36*
X384748Y173893D02*
X387838Y173893D01*
X387838Y178816D01*
X383260Y178816D01*
X383260Y175380D01*
X384748Y173893D01*
G37*
G36*
X269720Y161290D02*
X278238Y161290D01*
X278238Y169808D01*
X277154Y169808D01*
X273743Y168395D01*
X271133Y165785D01*
X269720Y162374D01*
X269720Y161290D01*
G37*
G36*
X279762Y161290D02*
X288280Y161290D01*
X288280Y162374D01*
X286867Y165785D01*
X284257Y168395D01*
X280846Y169808D01*
X279762Y169808D01*
X279762Y161290D01*
G37*
G36*
X327255Y151756D02*
X330745Y151756D01*
X333969Y153091D01*
X336437Y155559D01*
X337772Y158783D01*
X337772Y162273D01*
X336437Y165497D01*
X333969Y167965D01*
X330745Y169300D01*
X327255Y169300D01*
X324031Y167965D01*
X321563Y165497D01*
X320228Y162273D01*
X320228Y158783D01*
X321563Y155559D01*
X324031Y153091D01*
X327255Y151756D01*
G37*
G36*
X279762Y151248D02*
X280846Y151248D01*
X284257Y152661D01*
X286867Y155271D01*
X288280Y158682D01*
X288280Y159766D01*
X279762Y159766D01*
X279762Y151248D01*
G37*
G36*
X277154Y151248D02*
X278238Y151248D01*
X278238Y159766D01*
X269720Y159766D01*
X269720Y158682D01*
X271133Y155271D01*
X273743Y152661D01*
X277154Y151248D01*
G37*
%LPD*%
G36*
X371995Y282541D02*
X371700Y282471D01*
X371401Y282522D01*
X371146Y282686D01*
X370974Y282936D01*
X370914Y283233D01*
X370914Y287238D01*
X369387Y290925D01*
X367648Y292664D01*
X367490Y292894D01*
X367425Y293190D01*
X367480Y293488D01*
X367648Y293741D01*
X451358Y377451D01*
X451358Y410678D01*
X451409Y410953D01*
X451573Y411208D01*
X451823Y411380D01*
X452120Y411440D01*
X456518Y411440D01*
X457708Y412630D01*
X457708Y417870D01*
X457617Y417961D01*
X457459Y418192D01*
X457393Y418488D01*
X457449Y418786D01*
X457617Y419039D01*
X457708Y419130D01*
X457708Y424370D01*
X457617Y424461D01*
X457459Y424692D01*
X457393Y424988D01*
X457449Y425286D01*
X457617Y425539D01*
X457708Y425630D01*
X457708Y430870D01*
X457617Y430961D01*
X457459Y431192D01*
X457393Y431488D01*
X457449Y431786D01*
X457617Y432039D01*
X457708Y432130D01*
X457708Y437370D01*
X457617Y437461D01*
X457459Y437692D01*
X457393Y437988D01*
X457449Y438286D01*
X457617Y438539D01*
X457708Y438630D01*
X457708Y444096D01*
X457764Y444382D01*
X457931Y444635D01*
X458216Y444920D01*
X458216Y446988D01*
X447548Y446988D01*
X447548Y448512D01*
X458216Y448512D01*
X458216Y450580D01*
X457931Y450865D01*
X457768Y451107D01*
X457708Y451404D01*
X457708Y456870D01*
X457617Y456961D01*
X457459Y457192D01*
X457393Y457488D01*
X457449Y457786D01*
X457617Y458039D01*
X457708Y458130D01*
X457708Y463370D01*
X457617Y463461D01*
X457459Y463692D01*
X457393Y463988D01*
X457449Y464286D01*
X457617Y464539D01*
X457708Y464630D01*
X457708Y469870D01*
X457617Y469961D01*
X457459Y470192D01*
X457393Y470488D01*
X457449Y470786D01*
X457617Y471039D01*
X457708Y471130D01*
X457708Y476370D01*
X456518Y477560D01*
X450596Y477560D01*
X450321Y477611D01*
X450066Y477775D01*
X449894Y478025D01*
X449834Y478322D01*
X449834Y479286D01*
X449887Y479566D01*
X450053Y479820D01*
X450304Y479990D01*
X451772Y480598D01*
X454122Y482948D01*
X455394Y486018D01*
X455394Y489342D01*
X454122Y492412D01*
X451772Y494762D01*
X448702Y496034D01*
X445378Y496034D01*
X442308Y494762D01*
X440975Y493429D01*
X440755Y493276D01*
X440460Y493206D01*
X440161Y493257D01*
X439906Y493421D01*
X439734Y493671D01*
X439674Y493968D01*
X439674Y498997D01*
X432957Y505714D01*
X415403Y505714D01*
X373126Y463437D01*
X373126Y456156D01*
X373075Y455881D01*
X372911Y455626D01*
X372661Y455454D01*
X372364Y455394D01*
X369178Y455394D01*
X366208Y454164D01*
X365953Y454107D01*
X365653Y454153D01*
X365395Y454312D01*
X365220Y454559D01*
X365155Y454856D01*
X365210Y455154D01*
X365378Y455407D01*
X366014Y456043D01*
X366014Y481127D01*
X366070Y481413D01*
X366237Y481666D01*
X398670Y514099D01*
X398912Y514262D01*
X399209Y514322D01*
X439708Y514322D01*
X439971Y514275D01*
X440229Y514116D01*
X440405Y513868D01*
X440470Y513572D01*
X440414Y513274D01*
X440247Y513021D01*
X439958Y512732D01*
X438686Y509662D01*
X438686Y506338D01*
X439958Y503268D01*
X442308Y500918D01*
X445378Y499646D01*
X448702Y499646D01*
X450170Y500254D01*
X450449Y500312D01*
X450747Y500256D01*
X451000Y500089D01*
X474503Y476586D01*
X474666Y476344D01*
X474726Y476047D01*
X474726Y456043D01*
X485813Y444956D01*
X496579Y444956D01*
X496842Y444909D01*
X497100Y444750D01*
X497276Y444502D01*
X497341Y444206D01*
X497332Y444160D01*
X497332Y438630D01*
X497424Y438539D01*
X497582Y438308D01*
X497647Y438012D01*
X497591Y437714D01*
X497424Y437461D01*
X497332Y437370D01*
X497332Y432130D01*
X497424Y432039D01*
X497582Y431808D01*
X497647Y431512D01*
X497591Y431214D01*
X497424Y430961D01*
X497332Y430870D01*
X497332Y425630D01*
X497424Y425539D01*
X497582Y425308D01*
X497647Y425012D01*
X497591Y424714D01*
X497424Y424461D01*
X497332Y424370D01*
X497332Y419130D01*
X497424Y419039D01*
X497582Y418808D01*
X497647Y418512D01*
X497591Y418214D01*
X497424Y417961D01*
X497332Y417870D01*
X497332Y412630D01*
X498522Y411440D01*
X503174Y411440D01*
X503449Y411389D01*
X503704Y411225D01*
X503876Y410975D01*
X503936Y410678D01*
X503936Y343103D01*
X503880Y342817D01*
X503713Y342564D01*
X489286Y328137D01*
X489044Y327974D01*
X488747Y327914D01*
X445883Y327914D01*
X436626Y318657D01*
X436626Y313194D01*
X436573Y312914D01*
X436407Y312660D01*
X436156Y312490D01*
X434688Y311882D01*
X432338Y309532D01*
X431066Y306462D01*
X431066Y303138D01*
X432338Y300068D01*
X434688Y297718D01*
X437758Y296446D01*
X441082Y296446D01*
X444152Y297718D01*
X446502Y300068D01*
X447774Y303138D01*
X447774Y306462D01*
X446502Y309532D01*
X444152Y311882D01*
X442684Y312490D01*
X442446Y312647D01*
X442274Y312897D01*
X442214Y313194D01*
X442214Y316027D01*
X442270Y316313D01*
X442437Y316566D01*
X447974Y322103D01*
X448216Y322266D01*
X448513Y322326D01*
X491377Y322326D01*
X509524Y340473D01*
X509524Y410678D01*
X509575Y410953D01*
X509739Y411208D01*
X509989Y411380D01*
X510286Y411440D01*
X514938Y411440D01*
X516128Y412630D01*
X516128Y417870D01*
X516037Y417961D01*
X515879Y418192D01*
X515813Y418488D01*
X515869Y418786D01*
X516037Y419039D01*
X516128Y419130D01*
X516128Y424370D01*
X516037Y424461D01*
X515879Y424692D01*
X515813Y424988D01*
X515869Y425286D01*
X516037Y425539D01*
X516128Y425630D01*
X516128Y430870D01*
X516037Y430961D01*
X515879Y431192D01*
X515813Y431488D01*
X515869Y431786D01*
X516037Y432039D01*
X516128Y432130D01*
X516128Y437370D01*
X516037Y437461D01*
X515879Y437692D01*
X515813Y437988D01*
X515869Y438286D01*
X516037Y438539D01*
X516128Y438630D01*
X516128Y443870D01*
X516037Y443961D01*
X515879Y444192D01*
X515813Y444488D01*
X515869Y444786D01*
X516037Y445039D01*
X516128Y445130D01*
X516128Y450370D01*
X516037Y450461D01*
X515879Y450692D01*
X515813Y450988D01*
X515869Y451286D01*
X516037Y451539D01*
X516128Y451630D01*
X516128Y452156D01*
X516175Y452420D01*
X516334Y452678D01*
X516582Y452853D01*
X516878Y452918D01*
X517176Y452863D01*
X517429Y452695D01*
X520124Y450000D01*
X520287Y449759D01*
X520347Y449461D01*
X520347Y339194D01*
X520291Y338908D01*
X520124Y338655D01*
X474175Y292706D01*
X473933Y292543D01*
X473636Y292483D01*
X382004Y292483D01*
X372215Y282694D01*
X371995Y282541D01*
G37*
G36*
X379795Y387294D02*
X379500Y387224D01*
X379201Y387275D01*
X378946Y387438D01*
X378774Y387688D01*
X378714Y387986D01*
X378714Y394857D01*
X364741Y408830D01*
X364578Y409072D01*
X364518Y409369D01*
X364518Y439708D01*
X364565Y439971D01*
X364724Y440229D01*
X364972Y440405D01*
X365268Y440470D01*
X365566Y440414D01*
X365819Y440247D01*
X366108Y439958D01*
X369178Y438686D01*
X372502Y438686D01*
X375572Y439958D01*
X377922Y442308D01*
X379194Y445378D01*
X379194Y448702D01*
X378586Y450170D01*
X378528Y450449D01*
X378584Y450747D01*
X378714Y450944D01*
X378714Y460807D01*
X378770Y461093D01*
X378937Y461346D01*
X417494Y499903D01*
X417736Y500066D01*
X418033Y500126D01*
X430327Y500126D01*
X430613Y500070D01*
X430866Y499903D01*
X433863Y496906D01*
X434026Y496664D01*
X434086Y496367D01*
X434086Y486105D01*
X434039Y485842D01*
X433880Y485584D01*
X433632Y485408D01*
X433336Y485343D01*
X433038Y485399D01*
X432785Y485566D01*
X427877Y490474D01*
X410323Y490474D01*
X383286Y463437D01*
X383286Y433273D01*
X383230Y432987D01*
X383063Y432734D01*
X379880Y429551D01*
X379644Y429391D01*
X379347Y429328D01*
X379050Y429386D01*
X377582Y429994D01*
X374258Y429994D01*
X371188Y428722D01*
X368838Y426372D01*
X367566Y423302D01*
X367566Y419978D01*
X368838Y416908D01*
X371188Y414558D01*
X374258Y413286D01*
X377582Y413286D01*
X380652Y414558D01*
X383002Y416908D01*
X384274Y419978D01*
X384274Y423302D01*
X383666Y424770D01*
X383608Y425049D01*
X383664Y425347D01*
X383831Y425600D01*
X388874Y430643D01*
X388874Y460807D01*
X388930Y461093D01*
X389097Y461346D01*
X412414Y484663D01*
X412656Y484826D01*
X412953Y484886D01*
X425247Y484886D01*
X425533Y484830D01*
X425786Y484663D01*
X435133Y475316D01*
X435296Y475074D01*
X435356Y474777D01*
X435356Y469657D01*
X438689Y466325D01*
X438852Y466083D01*
X438912Y465786D01*
X438912Y464630D01*
X439004Y464539D01*
X439162Y464308D01*
X439227Y464012D01*
X439171Y463714D01*
X439004Y463461D01*
X438912Y463370D01*
X438912Y458130D01*
X439004Y458039D01*
X439162Y457808D01*
X439227Y457512D01*
X439171Y457214D01*
X439004Y456961D01*
X438906Y456863D01*
X438664Y456700D01*
X438367Y456640D01*
X437998Y456640D01*
X436375Y455017D01*
X436155Y454864D01*
X435860Y454794D01*
X435561Y454845D01*
X435306Y455008D01*
X435134Y455258D01*
X435074Y455556D01*
X435074Y458862D01*
X433802Y461932D01*
X431452Y464282D01*
X428382Y465554D01*
X425058Y465554D01*
X421988Y464282D01*
X419638Y461932D01*
X419346Y461226D01*
X419189Y460988D01*
X418939Y460816D01*
X418642Y460756D01*
X416474Y460756D01*
X416188Y460812D01*
X415935Y460979D01*
X414537Y462378D01*
X407253Y462378D01*
X406947Y462071D01*
X406717Y461913D01*
X406420Y461848D01*
X406122Y461904D01*
X405869Y462071D01*
X405055Y462886D01*
X401965Y462886D01*
X401965Y456438D01*
X395863Y456438D01*
X395863Y453002D01*
X397351Y451515D01*
X399623Y451515D01*
X399887Y451468D01*
X400145Y451308D01*
X400320Y451061D01*
X400385Y450765D01*
X400330Y450467D01*
X400162Y450214D01*
X399796Y449848D01*
X399796Y448658D01*
X399745Y448383D01*
X399581Y448128D01*
X399331Y447956D01*
X399034Y447896D01*
X393018Y447896D01*
X391828Y446706D01*
X391828Y425022D01*
X393018Y423832D01*
X414560Y423832D01*
X414824Y423785D01*
X415082Y423626D01*
X415257Y423378D01*
X415322Y423082D01*
X415267Y422784D01*
X415099Y422531D01*
X380015Y387447D01*
X379795Y387294D01*
G37*
%LPC*%
G36*
X395863Y457962D02*
X400441Y457962D01*
X400441Y462886D01*
X397351Y462886D01*
X395863Y461398D01*
X395863Y457962D01*
G37*
%LPD*%
G36*
X188995Y141579D02*
X188500Y141478D01*
X55898Y141478D01*
X55421Y141571D01*
X55000Y141850D01*
X51172Y145678D01*
X50901Y146081D01*
X50800Y146576D01*
X50800Y313690D01*
X50885Y314148D01*
X51158Y314574D01*
X51575Y314859D01*
X52070Y314960D01*
X222250Y314960D01*
X222708Y314875D01*
X223134Y314602D01*
X223419Y314185D01*
X223520Y313690D01*
X223520Y226412D01*
X223435Y225954D01*
X223162Y225528D01*
X222745Y225242D01*
X222250Y225142D01*
X220706Y225142D01*
X220706Y213771D01*
X222250Y213771D01*
X222708Y213685D01*
X223134Y213413D01*
X223419Y212996D01*
X223520Y212501D01*
X223520Y208308D01*
X223435Y207850D01*
X223162Y207424D01*
X222745Y207139D01*
X222250Y207038D01*
X185307Y207038D01*
X160910Y182641D01*
X160544Y182386D01*
X160052Y182270D01*
X159554Y182355D01*
X159128Y182627D01*
X158843Y183044D01*
X158742Y183539D01*
X158742Y197820D01*
X157552Y199010D01*
X149012Y199010D01*
X148554Y199095D01*
X148128Y199368D01*
X147843Y199785D01*
X147742Y200280D01*
X147742Y201820D01*
X146552Y203010D01*
X136868Y203010D01*
X135678Y201820D01*
X135678Y200280D01*
X135593Y199822D01*
X135320Y199396D01*
X134903Y199111D01*
X134408Y199010D01*
X130568Y199010D01*
X130110Y199095D01*
X129684Y199368D01*
X129399Y199785D01*
X129298Y200280D01*
X129298Y205521D01*
X125086Y209733D01*
X124815Y210135D01*
X124714Y210631D01*
X124714Y224946D01*
X124803Y225414D01*
X125079Y225837D01*
X125498Y226120D01*
X126652Y226598D01*
X129002Y228948D01*
X130274Y232018D01*
X130274Y235342D01*
X129002Y238412D01*
X126652Y240762D01*
X123582Y242034D01*
X120258Y242034D01*
X117188Y240762D01*
X114838Y238412D01*
X113566Y235342D01*
X113566Y232018D01*
X114838Y228948D01*
X117188Y226598D01*
X118342Y226120D01*
X118740Y225859D01*
X119025Y225442D01*
X119126Y224946D01*
X119126Y220200D01*
X119051Y219770D01*
X118789Y219338D01*
X118379Y219042D01*
X117886Y218930D01*
X117389Y219019D01*
X116965Y219294D01*
X116683Y219714D01*
X116302Y220632D01*
X113952Y222982D01*
X110882Y224254D01*
X107558Y224254D01*
X104488Y222982D01*
X102138Y220632D01*
X100866Y217562D01*
X100866Y214238D01*
X102138Y211168D01*
X104488Y208818D01*
X107558Y207546D01*
X110882Y207546D01*
X111528Y207814D01*
X111994Y207910D01*
X112491Y207817D01*
X112912Y207538D01*
X116036Y204414D01*
X116307Y204012D01*
X116408Y203516D01*
X116408Y199220D01*
X116330Y198781D01*
X116064Y198351D01*
X115652Y198058D01*
X115158Y197950D01*
X114661Y198043D01*
X114240Y198322D01*
X113552Y199010D01*
X103868Y199010D01*
X102437Y197578D01*
X102320Y197396D01*
X101903Y197111D01*
X101408Y197010D01*
X94012Y197010D01*
X93554Y197095D01*
X93128Y197368D01*
X92986Y197576D01*
X91552Y199010D01*
X90774Y199010D01*
X90316Y199095D01*
X89890Y199368D01*
X89605Y199785D01*
X89504Y200280D01*
X89504Y257747D01*
X89597Y258223D01*
X89876Y258645D01*
X99314Y268083D01*
X99314Y290096D01*
X99399Y290554D01*
X99672Y290980D01*
X100089Y291265D01*
X100584Y291366D01*
X103262Y291366D01*
X106332Y292638D01*
X108682Y294988D01*
X109954Y298058D01*
X109954Y301382D01*
X108682Y304452D01*
X106332Y306802D01*
X103262Y308074D01*
X99938Y308074D01*
X96868Y306802D01*
X94518Y304452D01*
X93624Y302294D01*
X93363Y301896D01*
X92946Y301611D01*
X92451Y301510D01*
X73968Y301510D01*
X72778Y300320D01*
X72778Y284636D01*
X73968Y283446D01*
X92456Y283446D01*
X92914Y283361D01*
X93340Y283088D01*
X93625Y282671D01*
X93726Y282176D01*
X93726Y270923D01*
X93633Y270447D01*
X93354Y270025D01*
X83916Y260587D01*
X83916Y200280D01*
X83831Y199822D01*
X83558Y199396D01*
X83141Y199111D01*
X82646Y199010D01*
X81758Y199010D01*
X81724Y198986D01*
X81230Y198878D01*
X80733Y198971D01*
X80674Y199010D01*
X70868Y199010D01*
X69678Y197820D01*
X69678Y181136D01*
X70868Y179946D01*
X80662Y179946D01*
X80696Y179970D01*
X81190Y180078D01*
X81687Y179985D01*
X81746Y179946D01*
X90408Y179946D01*
X90866Y179861D01*
X91292Y179588D01*
X91434Y179380D01*
X92868Y177946D01*
X93138Y177946D01*
X93596Y177861D01*
X94022Y177588D01*
X94307Y177171D01*
X94408Y176676D01*
X94408Y170162D01*
X114456Y150114D01*
X174088Y150114D01*
X176022Y152048D01*
X176022Y170826D01*
X176115Y171303D01*
X176394Y171724D01*
X194036Y189366D01*
X194438Y189637D01*
X194934Y189738D01*
X221626Y189738D01*
X222103Y189645D01*
X222524Y189366D01*
X223148Y188742D01*
X223419Y188340D01*
X223520Y187844D01*
X223520Y153688D01*
X223427Y153211D01*
X223148Y152790D01*
X212208Y141850D01*
X211805Y141579D01*
X211310Y141478D01*
X210120Y141478D01*
X209662Y141563D01*
X209236Y141836D01*
X208951Y142253D01*
X208850Y142748D01*
X208850Y150216D01*
X189770Y150216D01*
X189770Y142748D01*
X189685Y142290D01*
X189412Y141864D01*
X188995Y141579D01*
G37*
%LPC*%
G36*
X129270Y293240D02*
X140048Y293240D01*
X140048Y302018D01*
X130758Y302018D01*
X129270Y300530D01*
X129270Y293240D01*
G37*
G36*
X141572Y293240D02*
X152350Y293240D01*
X152350Y300530D01*
X150862Y302018D01*
X141572Y302018D01*
X141572Y293240D01*
G37*
G36*
X141572Y282938D02*
X150862Y282938D01*
X152350Y284426D01*
X152350Y291716D01*
X141572Y291716D01*
X141572Y282938D01*
G37*
G36*
X130758Y282938D02*
X140048Y282938D01*
X140048Y291716D01*
X129270Y291716D01*
X129270Y284426D01*
X130758Y282938D01*
G37*
G36*
X214604Y220218D02*
X219182Y220218D01*
X219182Y225142D01*
X216092Y225142D01*
X214604Y223654D01*
X214604Y220218D01*
G37*
G36*
X216092Y213771D02*
X219182Y213771D01*
X219182Y218694D01*
X214604Y218694D01*
X214604Y215258D01*
X216092Y213771D01*
G37*
G36*
X58270Y161740D02*
X67048Y161740D01*
X67048Y173018D01*
X59758Y173018D01*
X58270Y171530D01*
X58270Y161740D01*
G37*
G36*
X68572Y161740D02*
X77350Y161740D01*
X77350Y171530D01*
X75862Y173018D01*
X68572Y173018D01*
X68572Y161740D01*
G37*
G36*
X189770Y151740D02*
X198548Y151740D01*
X198548Y163018D01*
X191258Y163018D01*
X189770Y161530D01*
X189770Y151740D01*
G37*
G36*
X200072Y151740D02*
X208850Y151740D01*
X208850Y161530D01*
X207362Y163018D01*
X200072Y163018D01*
X200072Y151740D01*
G37*
G36*
X68572Y148938D02*
X75862Y148938D01*
X77350Y150426D01*
X77350Y160216D01*
X68572Y160216D01*
X68572Y148938D01*
G37*
G36*
X59758Y148938D02*
X67048Y148938D01*
X67048Y160216D01*
X58270Y160216D01*
X58270Y150426D01*
X59758Y148938D01*
G37*
%LPD*%
D10*
X61535Y556322D03*
X52535Y556322D03*
X60380Y533400D03*
X51380Y533400D03*
X60380Y508000D03*
X51380Y508000D03*
D11*
X439476Y185522D03*
X439476Y176022D03*
X439476Y166522D03*
X464764Y166522D03*
X464764Y185522D03*
D12*
X442624Y258572D03*
X442624Y245872D03*
X442624Y233172D03*
X442624Y220472D03*
X492096Y220472D03*
X492096Y233172D03*
X492096Y245872D03*
X492096Y258572D03*
D13*
X67810Y160978D03*
X199310Y150978D03*
D14*
X83810Y292478D03*
X140810Y292478D03*
D15*
X130710Y189478D03*
X108710Y189478D03*
X86710Y189478D03*
X75710Y189478D03*
X152710Y189478D03*
X141710Y193478D03*
X119710Y187478D03*
X97710Y187478D03*
D16*
X368300Y533400D03*
X317500Y533400D03*
X266700Y533400D03*
X215900Y533400D03*
D17*
X290882Y285242D03*
X360882Y285242D03*
D18*
X139695Y533400D03*
X129545Y533400D03*
X114295Y547542D03*
X104145Y547542D03*
X114295Y508000D03*
X104145Y508000D03*
D19*
X55880Y487400D03*
X55880Y452400D03*
D20*
X254000Y160528D03*
X279000Y160528D03*
X304000Y160528D03*
X329000Y160528D03*
D21*
X223520Y393700D03*
X325120Y393700D03*
X350520Y393700D03*
X350520Y469900D03*
X325120Y469900D03*
X223520Y469900D03*
D22*
X448310Y473750D03*
X448310Y467250D03*
X448310Y460750D03*
X448310Y454250D03*
X448310Y447750D03*
X448310Y441250D03*
X448310Y434750D03*
X448310Y428250D03*
X448310Y421750D03*
X448310Y415250D03*
X506730Y415250D03*
X506730Y421750D03*
X506730Y428250D03*
X506730Y434750D03*
X506730Y441250D03*
X506730Y447750D03*
X506730Y454250D03*
X506730Y460750D03*
X506730Y467250D03*
X506730Y473750D03*
D23*
X410895Y457200D03*
X401203Y457200D03*
X398292Y179578D03*
X388600Y179578D03*
D24*
X177721Y414099D03*
X172720Y414099D03*
X167719Y414099D03*
X177721Y419100D03*
X172720Y419100D03*
X167719Y419100D03*
X177721Y424101D03*
X172720Y424101D03*
X167719Y424101D03*
D25*
X147320Y426954D03*
X147320Y436646D03*
X172720Y449814D03*
X172720Y459506D03*
D18*
X228595Y368300D03*
X218445Y368300D03*
D26*
X210820Y325125D03*
X210820Y335275D03*
D18*
X170185Y378460D03*
X180335Y378460D03*
X129545Y393700D03*
X139695Y393700D03*
D26*
X198120Y360675D03*
X198120Y350525D03*
D19*
X55880Y360400D03*
X55880Y325400D03*
D26*
X121920Y337825D03*
X121920Y347975D03*
D23*
X151535Y414020D03*
X141843Y414020D03*
X219944Y219456D03*
X229636Y219456D03*
D27*
X434848Y547116D02*
X434848Y562356D01*
X460248Y562356D02*
X460248Y547116D01*
D28*
X60960Y421232D03*
D29*
X60960Y396232D03*
D30*
X397510Y203200D03*
X145288Y479044D03*
X403860Y435864D03*
D31*
X383161Y289689D02*
X254000Y160528D01*
X147320Y508000D02*
X114295Y508000D01*
X147320Y508000D02*
X210820Y444500D01*
X223520Y444500D01*
D32*
X223520Y444500D03*
X477520Y508000D03*
D31*
X490220Y495300D01*
X490220Y470665D01*
X500135Y460750D01*
X506730Y460750D01*
X475109Y289689D02*
X383161Y289689D01*
X475109Y289689D02*
X523141Y337721D01*
X523141Y450934D01*
X513325Y460750D01*
X506730Y460750D01*
X507134Y466846D02*
X506730Y467250D01*
X485140Y279400D02*
X388428Y279400D01*
X507134Y466846D02*
X522074Y466846D01*
X531216Y325476D02*
X485140Y279400D01*
X531216Y457704D02*
X522074Y466846D01*
X531216Y457704D02*
X531216Y325476D01*
X304000Y194972D02*
X304000Y160528D01*
X304000Y194972D02*
X388428Y279400D01*
D33*
X410895Y457200D02*
X426720Y457200D01*
D32*
X426720Y457200D03*
D33*
X447144Y453084D02*
X448310Y454250D01*
X447144Y453084D02*
X439471Y453084D01*
D32*
X426720Y450216D03*
D33*
X436603Y450216D02*
X439471Y453084D01*
X436603Y450216D02*
X426720Y450216D01*
D32*
X83820Y559336D03*
D34*
X121019Y393700D02*
X129545Y393700D01*
D32*
X121019Y393700D03*
D34*
X198120Y350525D02*
X198120Y342900D01*
D32*
X198120Y342900D03*
X109220Y215900D03*
D34*
X172720Y424101D02*
X172720Y436880D01*
D32*
X172720Y436880D03*
D34*
X180574Y441960D02*
X172720Y449814D01*
X180574Y441960D02*
X182880Y441960D01*
D32*
X182880Y441960D03*
D34*
X228595Y368300D02*
X231135Y365760D01*
X238760Y365760D01*
D32*
X238760Y365760D03*
D34*
X170185Y378460D02*
X161659Y378460D01*
D32*
X161659Y378460D03*
D34*
X492096Y245872D02*
X493366Y244602D01*
X510540Y244602D01*
D32*
X510540Y244602D03*
D34*
X56667Y562124D02*
X54733Y560190D01*
X81032Y562124D02*
X83820Y559336D01*
X81032Y562124D02*
X56667Y562124D01*
X54733Y560190D02*
X54733Y558520D01*
X52535Y556322D01*
D32*
X417158Y186182D03*
X419100Y173482D03*
D34*
X436264Y172810D02*
X439476Y176022D01*
X436264Y172810D02*
X419773Y172810D01*
X419100Y173482D01*
X51380Y508000D02*
X43418Y515962D01*
X52535Y546385D02*
X52535Y556322D01*
X52535Y546385D02*
X43418Y537268D01*
X43418Y533400D01*
X43418Y515962D01*
X43418Y533400D02*
X51380Y533400D01*
X109220Y215900D02*
X119710Y205410D01*
D35*
X408067Y452371D02*
X408067Y454372D01*
X410895Y457200D01*
X403860Y448164D02*
X403860Y435864D01*
X403860Y448164D02*
X408067Y452371D01*
D33*
X397510Y203200D02*
X398292Y202418D01*
X398292Y179578D01*
X410554Y179578D01*
X417158Y186182D01*
D34*
X119710Y187478D02*
X119710Y205410D01*
D36*
X172720Y419100D02*
X177721Y424101D01*
D33*
X325120Y469900D02*
X353060Y497840D01*
X355600Y497840D01*
D32*
X355600Y497840D03*
X411480Y472440D03*
D34*
X172720Y153416D02*
X115824Y153416D01*
X172720Y153416D02*
X172720Y172720D01*
X193040Y193040D01*
X223520Y193040D01*
X238760Y177800D01*
X238760Y145914D01*
X264640Y145914D01*
X275444Y156972D02*
X279000Y160528D01*
X275444Y156972D02*
X275444Y156718D01*
X264640Y145914D01*
D32*
X467360Y467360D03*
D35*
X254000Y244348D02*
X254000Y243820D01*
X229636Y219456D01*
D32*
X254000Y244348D03*
X276098Y223266D03*
D35*
X275844Y223266D01*
X275336Y222758D01*
D34*
X97710Y187478D02*
X97710Y171530D01*
X115824Y153416D01*
D35*
X350520Y393700D02*
X350520Y410718D01*
X289052Y472186D01*
X289052Y511048D02*
X266700Y533400D01*
X289052Y511048D02*
X289052Y472186D01*
X248920Y469900D02*
X210820Y508000D01*
X332994Y568706D02*
X368300Y533400D01*
X223520Y429812D02*
X223520Y393700D01*
X223520Y429812D02*
X248920Y455212D01*
X248920Y469900D01*
X210820Y508000D02*
X187408Y508000D01*
X159343Y536065D01*
X159343Y553371D01*
X174677Y568706D01*
X332994Y568706D01*
X238760Y556260D02*
X215900Y533400D01*
X238760Y556260D02*
X294640Y556260D01*
X317500Y533400D01*
D31*
X506326Y454654D02*
X506730Y454250D01*
X363220Y457200D02*
X363220Y482600D01*
X375920Y393700D02*
X375920Y381000D01*
X363220Y368300D01*
X350520Y368300D01*
X325120Y393700D01*
X497610Y454654D02*
X506326Y454654D01*
X497610Y454654D02*
X484124Y468140D01*
X484124Y488504D01*
X455512Y517116D02*
X397736Y517116D01*
X363220Y482600D01*
X455512Y517116D02*
X484124Y488504D01*
X363220Y457200D02*
X361724Y455704D01*
X361724Y407896D01*
X375920Y393700D01*
D37*
X422910Y233172D02*
X416560Y226822D01*
X422910Y233172D02*
X442624Y233172D01*
X416560Y208438D02*
X439476Y185522D01*
X416560Y208438D02*
X416560Y226822D01*
D31*
X232376Y204244D02*
X186464Y204244D01*
X441715Y428250D02*
X448310Y428250D01*
X441715Y428250D02*
X425873Y412408D01*
X425873Y392853D02*
X375920Y342900D01*
X425873Y392853D02*
X425873Y412408D01*
X375920Y342900D02*
X371032Y342900D01*
X232376Y204244D01*
X114553Y177184D02*
X108710Y183027D01*
X108710Y189478D01*
X159404Y177184D02*
X186464Y204244D01*
X159404Y177184D02*
X114553Y177184D01*
X448200Y421640D02*
X448310Y421750D01*
D32*
X121920Y233680D03*
D31*
X441605Y421640D02*
X448200Y421640D01*
X441605Y421640D02*
X431715Y411750D01*
D32*
X402314Y349272D03*
D31*
X431715Y379942D02*
X431715Y411750D01*
X431715Y379942D02*
X401679Y349907D01*
X402314Y349272D01*
X121920Y233680D02*
X121920Y208947D01*
X126504Y193684D02*
X130710Y189478D01*
X126504Y204363D02*
X121920Y208947D01*
X126504Y204363D02*
X126504Y193684D01*
X96520Y269240D02*
X96520Y294640D01*
X101600Y299720D01*
D32*
X101600Y299720D03*
X167640Y513080D03*
D31*
X147320Y533400D01*
X139695Y533400D01*
D32*
X447040Y508000D03*
D31*
X477520Y477520D01*
X477520Y457200D01*
X486970Y447750D01*
X506730Y447750D01*
X96520Y269240D02*
X86710Y259430D01*
X86710Y189478D01*
X261620Y368300D02*
X274320Y368300D01*
D32*
X261620Y368300D03*
X121920Y469900D03*
D31*
X104420Y487400D01*
X55880Y487400D01*
X448160Y441100D02*
X448310Y441250D01*
X382524Y362204D02*
X369316Y348996D01*
X293624Y348996D02*
X274320Y368300D01*
X293624Y348996D02*
X369316Y348996D01*
X382524Y362204D02*
X382524Y386005D01*
X437619Y441100D01*
X448160Y441100D01*
D37*
X70315Y547542D02*
X61535Y556322D01*
X70315Y547542D02*
X104145Y547542D01*
X129545Y533400D02*
X60380Y533400D01*
X60380Y508000D02*
X104145Y508000D01*
X448310Y415250D02*
X448310Y378714D01*
X360882Y291286D01*
X360882Y285242D01*
X442624Y245872D02*
X461010Y245872D01*
X473710Y233172D01*
X492096Y233172D01*
X425929Y245872D02*
X424688Y246890D01*
X425929Y245872D02*
X442624Y245872D01*
X424688Y246890D02*
X424688Y268986D01*
D32*
X424688Y268986D03*
D37*
X438436Y434750D02*
X448310Y434750D01*
D32*
X416757Y404503D03*
D37*
X416757Y413072D01*
X438436Y434750D01*
D31*
X218445Y368300D02*
X210820Y360675D01*
X210820Y335275D01*
D37*
X185420Y419100D02*
X177721Y419100D01*
X185420Y419100D02*
X210820Y393700D01*
X210820Y375925D01*
X218445Y368300D01*
D31*
X180340Y378460D02*
X180335Y378460D01*
X180340Y378460D02*
X187960Y370840D01*
D32*
X187960Y370840D03*
D31*
X446382Y469178D02*
X448310Y467250D01*
X446382Y469178D02*
X439787Y469178D01*
X438150Y470815D01*
X438150Y476250D01*
X426720Y487680D01*
X411480Y487680D01*
X386080Y462280D01*
X386080Y431800D01*
X375920Y421640D01*
D32*
X375920Y421640D03*
X174244Y397002D03*
D31*
X173530Y413289D02*
X172720Y414099D01*
X173530Y413289D02*
X173530Y412363D01*
X174244Y411649D01*
X174244Y397002D01*
X109495Y360400D02*
X55880Y360400D01*
X109495Y360400D02*
X121920Y347975D01*
X142520Y325400D02*
X55880Y325400D01*
X142520Y325400D02*
X177795Y360675D01*
X198120Y360675D01*
X198120Y368108D02*
X202156Y372144D01*
X198120Y368108D02*
X198120Y360675D01*
X196624Y395196D02*
X177721Y414099D01*
X196624Y395196D02*
X196816Y395196D01*
X202156Y389856D01*
X202156Y372144D01*
D33*
X162639Y414020D02*
X167719Y419100D01*
X162639Y414020D02*
X151535Y414020D01*
X147320Y426954D02*
X164866Y426954D01*
X167719Y424101D01*
D35*
X147320Y426954D02*
X66274Y426954D01*
X60960Y421640D02*
X60960Y421232D01*
X60960Y421640D02*
X66274Y426954D01*
D31*
X506730Y415250D02*
X506730Y341630D01*
X490220Y325120D01*
X447040Y325120D01*
X439420Y317500D01*
X439420Y304800D01*
D32*
X439420Y304800D03*
X518160Y201422D03*
D31*
X517906Y201422D01*
X482394Y165910D01*
X481782Y166522D01*
X464764Y166522D01*
X506730Y473750D02*
X506730Y498317D01*
X476957Y528090D01*
X434848Y532638D02*
X434848Y554736D01*
X434848Y532638D02*
X439674Y527812D01*
X476679Y527812D01*
X476957Y528090D01*
D32*
X193040Y386080D03*
D31*
X436880Y485180D02*
X436880Y497840D01*
X431800Y502920D01*
X416560Y502920D01*
X375920Y462280D01*
X375920Y452120D01*
X370840Y447040D01*
D32*
X370840Y447040D03*
X496570Y532638D03*
X447040Y487680D03*
D31*
X444540Y485180D01*
X436880Y485180D01*
X447040Y487680D02*
X447040Y475020D01*
X448310Y473750D01*
X170468Y387886D02*
X164654Y393700D01*
X191234Y387886D02*
X193040Y386080D01*
X191234Y387886D02*
X170468Y387886D01*
X151887Y405892D02*
X139695Y393700D01*
X151887Y405892D02*
X165354Y405892D01*
X167719Y408257D02*
X167719Y414099D01*
X167719Y408257D02*
X165354Y405892D01*
X164654Y393700D02*
X139695Y393700D01*
X474472Y554736D02*
X496570Y532638D01*
X474472Y554736D02*
X460248Y554736D01*
M02*
