G04 EAGLE Gerber RS-274X export*
G75*
%MOMM*%
%FSLAX34Y34*%
%LPD*%
%INBottom Copper*%
%IPPOS*%
%AMOC8*
5,1,8,0,0,1.08239X$1,22.5*%
G01*
G04 Define Apertures*
%ADD10C,1.800000*%
%ADD11C,1.600000*%
%ADD12C,1.348000*%
%ADD13C,1.308000*%
%ADD14C,1.524000*%
%ADD15R,1.408000X1.408000*%
%ADD16C,1.408000*%
%ADD17C,0.756400*%
%ADD18C,0.152400*%
%ADD19C,0.304800*%
%ADD20C,0.254000*%
%ADD21C,0.406400*%
%ADD22C,0.203200*%
G36*
X527526Y141289D02*
X527229Y141229D01*
X47952Y141478D01*
X47752Y141504D01*
X43290Y142719D01*
X43024Y142851D01*
X39283Y145746D01*
X39088Y145970D01*
X36739Y150076D01*
X36645Y150357D01*
X36073Y154834D01*
X36067Y154931D01*
X36068Y155547D01*
X36070Y155599D01*
X36192Y157366D01*
X36109Y157616D01*
X36069Y157858D01*
X36321Y556473D01*
X36322Y556480D01*
X36322Y558800D01*
X36337Y558949D01*
X37381Y564198D01*
X37494Y564472D01*
X40468Y568922D01*
X40678Y569132D01*
X45128Y572106D01*
X45402Y572219D01*
X50651Y573263D01*
X50800Y573278D01*
X432163Y573278D01*
X432421Y573233D01*
X432680Y573076D01*
X432858Y572830D01*
X432925Y572534D01*
X432872Y572236D01*
X432706Y571982D01*
X432455Y571812D01*
X429381Y570539D01*
X426665Y567823D01*
X425196Y564276D01*
X425196Y545196D01*
X426665Y541649D01*
X429381Y538933D01*
X432928Y537464D01*
X436768Y537464D01*
X440315Y538933D01*
X443031Y541649D01*
X444500Y545196D01*
X444500Y564276D01*
X443031Y567823D01*
X440315Y570539D01*
X437241Y571812D01*
X437020Y571952D01*
X436841Y572197D01*
X436771Y572492D01*
X436822Y572791D01*
X436985Y573046D01*
X437235Y573218D01*
X437533Y573278D01*
X457563Y573278D01*
X457821Y573233D01*
X458080Y573076D01*
X458258Y572830D01*
X458325Y572534D01*
X458272Y572236D01*
X458106Y571982D01*
X457855Y571812D01*
X454781Y570539D01*
X452065Y567823D01*
X450596Y564276D01*
X450596Y545196D01*
X452065Y541649D01*
X454781Y538933D01*
X458328Y537464D01*
X462168Y537464D01*
X465715Y538933D01*
X468431Y541649D01*
X469900Y545196D01*
X469900Y564276D01*
X468431Y567823D01*
X465715Y570539D01*
X462641Y571812D01*
X462420Y571952D01*
X462241Y572197D01*
X462171Y572492D01*
X462222Y572791D01*
X462385Y573046D01*
X462635Y573218D01*
X462933Y573278D01*
X528195Y573278D01*
X528357Y573261D01*
X528634Y573139D01*
X528842Y572918D01*
X528948Y572634D01*
X528934Y572331D01*
X528803Y572057D01*
X528576Y571856D01*
X524913Y569741D01*
X520229Y565057D01*
X516916Y559320D01*
X515202Y552921D01*
X515202Y546296D01*
X516916Y539897D01*
X520229Y534160D01*
X524913Y529475D01*
X530650Y526163D01*
X537049Y524448D01*
X543674Y524448D01*
X550073Y526163D01*
X554297Y528601D01*
X554655Y528703D01*
X554954Y528652D01*
X555209Y528488D01*
X555380Y528237D01*
X555440Y527940D01*
X554792Y185795D01*
X554746Y185533D01*
X554586Y185275D01*
X554339Y185099D01*
X554043Y185034D01*
X553744Y185090D01*
X553492Y185257D01*
X552391Y186358D01*
X546653Y189671D01*
X540254Y191385D01*
X533630Y191385D01*
X527231Y189671D01*
X521493Y186358D01*
X516809Y181674D01*
X513497Y175937D01*
X511782Y169538D01*
X511782Y162913D01*
X513497Y156514D01*
X516809Y150777D01*
X521493Y146092D01*
X527231Y142780D01*
X527426Y142727D01*
X527742Y142555D01*
X527921Y142310D01*
X527991Y142015D01*
X527940Y141716D01*
X527776Y141461D01*
X527526Y141289D01*
G37*
%LPC*%
G36*
X315306Y522368D02*
X319694Y522368D01*
X323749Y524048D01*
X326852Y527151D01*
X328532Y531206D01*
X328532Y535594D01*
X326852Y539649D01*
X323749Y542752D01*
X319694Y544432D01*
X315306Y544432D01*
X311251Y542752D01*
X308148Y539649D01*
X306468Y535594D01*
X306468Y531206D01*
X308148Y527151D01*
X311251Y524048D01*
X315306Y522368D01*
G37*
G36*
X213706Y522368D02*
X218094Y522368D01*
X222149Y524048D01*
X225252Y527151D01*
X226932Y531206D01*
X226932Y535594D01*
X225252Y539649D01*
X222149Y542752D01*
X218094Y544432D01*
X213706Y544432D01*
X209651Y542752D01*
X206548Y539649D01*
X204868Y535594D01*
X204868Y531206D01*
X206548Y527151D01*
X209651Y524048D01*
X213706Y522368D01*
G37*
G36*
X264506Y522368D02*
X268894Y522368D01*
X272949Y524048D01*
X276052Y527151D01*
X277732Y531206D01*
X277732Y535594D01*
X276052Y539649D01*
X272949Y542752D01*
X268894Y544432D01*
X264506Y544432D01*
X260451Y542752D01*
X257348Y539649D01*
X255668Y535594D01*
X255668Y531206D01*
X257348Y527151D01*
X260451Y524048D01*
X264506Y522368D01*
G37*
G36*
X366106Y522368D02*
X370494Y522368D01*
X374549Y524048D01*
X377652Y527151D01*
X379332Y531206D01*
X379332Y535594D01*
X377652Y539649D01*
X374549Y542752D01*
X370494Y544432D01*
X366106Y544432D01*
X362051Y542752D01*
X358948Y539649D01*
X357268Y535594D01*
X357268Y531206D01*
X358948Y527151D01*
X362051Y524048D01*
X366106Y522368D01*
G37*
G36*
X99938Y291366D02*
X103262Y291366D01*
X106332Y292638D01*
X108682Y294988D01*
X109954Y298058D01*
X109954Y301382D01*
X108682Y304452D01*
X106332Y306802D01*
X104864Y307410D01*
X104626Y307567D01*
X104454Y307817D01*
X104394Y308114D01*
X104394Y470967D01*
X104450Y471253D01*
X104617Y471506D01*
X133014Y499903D01*
X133256Y500066D01*
X133553Y500126D01*
X163717Y500126D01*
X168094Y504503D01*
X168336Y504666D01*
X168633Y504726D01*
X169302Y504726D01*
X172372Y505998D01*
X173573Y507198D01*
X173803Y507356D01*
X174099Y507421D01*
X174398Y507366D01*
X174650Y507198D01*
X186803Y495046D01*
X331357Y495046D01*
X341294Y504983D01*
X341536Y505146D01*
X341833Y505206D01*
X349312Y505206D01*
X349575Y505159D01*
X349833Y505000D01*
X350009Y504752D01*
X350074Y504456D01*
X350018Y504158D01*
X349851Y503905D01*
X348518Y502572D01*
X347246Y499502D01*
X347246Y496178D01*
X348518Y493108D01*
X350868Y490758D01*
X353938Y489486D01*
X357262Y489486D01*
X360332Y490758D01*
X362682Y493108D01*
X362975Y493814D01*
X363131Y494052D01*
X363381Y494224D01*
X363679Y494284D01*
X384291Y494284D01*
X384577Y494228D01*
X384830Y494061D01*
X387020Y491871D01*
X387173Y491651D01*
X387243Y491356D01*
X387192Y491057D01*
X387029Y490802D01*
X386779Y490630D01*
X386481Y490570D01*
X384883Y490570D01*
X359386Y465073D01*
X359172Y464922D01*
X358877Y464850D01*
X358578Y464899D01*
X358321Y465060D01*
X358148Y465309D01*
X358085Y465606D01*
X358143Y465903D01*
X359092Y468195D01*
X359092Y471605D01*
X357787Y474756D01*
X355376Y477167D01*
X352225Y478472D01*
X348815Y478472D01*
X345664Y477167D01*
X343253Y474756D01*
X341948Y471605D01*
X341948Y468195D01*
X343253Y465044D01*
X345664Y462633D01*
X348815Y461328D01*
X352225Y461328D01*
X355376Y462633D01*
X356775Y464033D01*
X356995Y464186D01*
X357290Y464255D01*
X357589Y464205D01*
X357844Y464041D01*
X358016Y463791D01*
X358076Y463494D01*
X358076Y455823D01*
X358020Y455537D01*
X357853Y455284D01*
X350086Y447517D01*
X349845Y447354D01*
X349547Y447294D01*
X231914Y447294D01*
X231634Y447347D01*
X231380Y447513D01*
X231210Y447764D01*
X230602Y449232D01*
X228252Y451582D01*
X225182Y452854D01*
X221858Y452854D01*
X218788Y451582D01*
X216438Y449232D01*
X215166Y446162D01*
X215166Y442838D01*
X216438Y439768D01*
X218788Y437418D01*
X221858Y436146D01*
X225182Y436146D01*
X228252Y437418D01*
X230602Y439768D01*
X231210Y441236D01*
X231367Y441474D01*
X231617Y441646D01*
X231914Y441706D01*
X352178Y441706D01*
X362120Y451648D01*
X362334Y451798D01*
X362628Y451871D01*
X362927Y451822D01*
X363184Y451661D01*
X363358Y451412D01*
X363420Y451115D01*
X363362Y450818D01*
X362486Y448702D01*
X362486Y445378D01*
X363094Y443911D01*
X363152Y443631D01*
X363096Y443333D01*
X362929Y443080D01*
X334346Y414497D01*
X334104Y414334D01*
X333807Y414274D01*
X303643Y414274D01*
X281686Y392317D01*
X281686Y346913D01*
X281630Y346627D01*
X281463Y346374D01*
X278466Y343377D01*
X278224Y343214D01*
X277927Y343154D01*
X250393Y343154D01*
X250107Y343210D01*
X249854Y343377D01*
X204357Y388874D01*
X201434Y388874D01*
X201154Y388927D01*
X200900Y389093D01*
X200730Y389344D01*
X200122Y390812D01*
X197772Y393162D01*
X194702Y394434D01*
X191378Y394434D01*
X188308Y393162D01*
X185958Y390812D01*
X184686Y387742D01*
X184686Y384418D01*
X185958Y381348D01*
X186811Y380495D01*
X186964Y380275D01*
X187034Y379980D01*
X186983Y379681D01*
X186819Y379426D01*
X186569Y379254D01*
X186324Y379204D01*
X183228Y377922D01*
X180878Y375572D01*
X179606Y372502D01*
X179606Y369178D01*
X180878Y366108D01*
X183228Y363758D01*
X184696Y363150D01*
X184934Y362993D01*
X185106Y362743D01*
X185166Y362446D01*
X185166Y357073D01*
X185110Y356787D01*
X184943Y356534D01*
X181946Y353537D01*
X181704Y353374D01*
X181407Y353314D01*
X169113Y353314D01*
X168827Y353370D01*
X168574Y353537D01*
X155417Y366694D01*
X155254Y366936D01*
X155194Y367233D01*
X155194Y384607D01*
X155250Y384893D01*
X155417Y385146D01*
X158414Y388143D01*
X158656Y388306D01*
X158953Y388366D01*
X169559Y388366D01*
X170284Y389091D01*
X170520Y389251D01*
X170817Y389314D01*
X171115Y389256D01*
X172582Y388648D01*
X175906Y388648D01*
X178976Y389920D01*
X181326Y392270D01*
X182598Y395340D01*
X182598Y398664D01*
X181326Y401734D01*
X178976Y404084D01*
X175906Y405356D01*
X172582Y405356D01*
X169512Y404084D01*
X167162Y401734D01*
X165890Y398664D01*
X165890Y395340D01*
X166028Y395008D01*
X166085Y394740D01*
X166035Y394441D01*
X165871Y394186D01*
X165621Y394014D01*
X165324Y393954D01*
X156323Y393954D01*
X149606Y387237D01*
X149606Y364603D01*
X166483Y347726D01*
X184037Y347726D01*
X190754Y354443D01*
X190754Y362446D01*
X190807Y362726D01*
X190973Y362980D01*
X191224Y363150D01*
X192692Y363758D01*
X195042Y366108D01*
X195650Y367576D01*
X195807Y367814D01*
X196057Y367986D01*
X196354Y368046D01*
X201727Y368046D01*
X202013Y367990D01*
X202266Y367823D01*
X242683Y327406D01*
X326277Y327406D01*
X378714Y379843D01*
X378714Y413246D01*
X378767Y413526D01*
X378933Y413780D01*
X379184Y413950D01*
X380652Y414558D01*
X383002Y416908D01*
X384274Y419978D01*
X384274Y423302D01*
X383002Y426372D01*
X380652Y428722D01*
X377582Y429994D01*
X374258Y429994D01*
X371188Y428722D01*
X368838Y426372D01*
X367566Y423302D01*
X367566Y419978D01*
X368838Y416908D01*
X371188Y414558D01*
X372656Y413950D01*
X372894Y413793D01*
X373066Y413543D01*
X373126Y413246D01*
X373126Y382473D01*
X373070Y382187D01*
X372903Y381934D01*
X324186Y333217D01*
X323944Y333054D01*
X323647Y332994D01*
X245313Y332994D01*
X245027Y333050D01*
X244774Y333217D01*
X204357Y373634D01*
X196354Y373634D01*
X196074Y373687D01*
X195820Y373853D01*
X195650Y374104D01*
X195042Y375572D01*
X194189Y376425D01*
X194036Y376645D01*
X193966Y376940D01*
X194017Y377239D01*
X194181Y377494D01*
X194431Y377666D01*
X194676Y377716D01*
X197772Y378998D01*
X200122Y381348D01*
X200730Y382816D01*
X200887Y383054D01*
X201137Y383226D01*
X201434Y383286D01*
X201727Y383286D01*
X202013Y383230D01*
X202266Y383063D01*
X247763Y337566D01*
X280557Y337566D01*
X287274Y344283D01*
X287274Y389687D01*
X287330Y389973D01*
X287497Y390226D01*
X305734Y408463D01*
X305976Y408626D01*
X306273Y408686D01*
X336437Y408686D01*
X366880Y439129D01*
X367116Y439289D01*
X367413Y439352D01*
X367711Y439294D01*
X369178Y438686D01*
X372502Y438686D01*
X375572Y439958D01*
X377922Y442308D01*
X379194Y445378D01*
X379194Y448702D01*
X377922Y451772D01*
X375572Y454122D01*
X372502Y455394D01*
X369178Y455394D01*
X366108Y454122D01*
X364965Y452979D01*
X364745Y452826D01*
X364450Y452756D01*
X364151Y452807D01*
X363896Y452971D01*
X363724Y453221D01*
X363664Y453518D01*
X363664Y461133D01*
X363720Y461419D01*
X363887Y461672D01*
X385501Y483286D01*
X385732Y483444D01*
X386028Y483509D01*
X386326Y483453D01*
X386579Y483286D01*
X399347Y470518D01*
X399510Y470276D01*
X399570Y469979D01*
X399570Y467507D01*
X406547Y460530D01*
X416413Y460530D01*
X419182Y463299D01*
X419424Y463462D01*
X419721Y463522D01*
X454039Y463522D01*
X454325Y463466D01*
X454578Y463299D01*
X462427Y455450D01*
X472293Y455450D01*
X479270Y462427D01*
X479270Y472293D01*
X472265Y479298D01*
X452312Y479298D01*
X452049Y479345D01*
X451791Y479504D01*
X451615Y479752D01*
X451550Y480048D01*
X451606Y480346D01*
X451773Y480599D01*
X454122Y482948D01*
X454730Y484416D01*
X454887Y484654D01*
X455137Y484826D01*
X455434Y484886D01*
X483757Y484886D01*
X499364Y500493D01*
X499364Y524244D01*
X499417Y524524D01*
X499583Y524778D01*
X499834Y524948D01*
X501302Y525556D01*
X503652Y527906D01*
X504924Y530976D01*
X504924Y534300D01*
X503652Y537370D01*
X501302Y539720D01*
X498232Y540992D01*
X494908Y540992D01*
X491838Y539720D01*
X489488Y537370D01*
X488216Y534300D01*
X488216Y530976D01*
X489488Y527906D01*
X491838Y525556D01*
X493306Y524948D01*
X493544Y524791D01*
X493716Y524541D01*
X493776Y524244D01*
X493776Y503123D01*
X493720Y502837D01*
X493553Y502584D01*
X481666Y490697D01*
X481424Y490534D01*
X481127Y490474D01*
X455434Y490474D01*
X455154Y490527D01*
X454900Y490693D01*
X454730Y490944D01*
X454122Y492412D01*
X453833Y492701D01*
X453680Y492921D01*
X453610Y493216D01*
X453661Y493515D01*
X453825Y493770D01*
X454075Y493942D01*
X454372Y494002D01*
X467473Y494002D01*
X473560Y500089D01*
X473796Y500249D01*
X474093Y500312D01*
X474391Y500254D01*
X475858Y499646D01*
X479182Y499646D01*
X482252Y500918D01*
X484602Y503268D01*
X485874Y506338D01*
X485874Y509662D01*
X484602Y512732D01*
X482252Y515082D01*
X479182Y516354D01*
X475858Y516354D01*
X472788Y515082D01*
X470438Y512732D01*
X469166Y509662D01*
X469166Y506338D01*
X469774Y504871D01*
X469832Y504591D01*
X469776Y504293D01*
X469609Y504040D01*
X465382Y499813D01*
X465140Y499650D01*
X464843Y499590D01*
X452284Y499590D01*
X452021Y499637D01*
X451763Y499796D01*
X451587Y500044D01*
X451522Y500340D01*
X451578Y500638D01*
X451745Y500891D01*
X454122Y503268D01*
X455394Y506338D01*
X455394Y509662D01*
X454122Y512732D01*
X451772Y515082D01*
X448702Y516354D01*
X445378Y516354D01*
X442308Y515082D01*
X439958Y512732D01*
X439350Y511264D01*
X439193Y511026D01*
X438943Y510854D01*
X438646Y510794D01*
X339203Y510794D01*
X329266Y500857D01*
X329024Y500694D01*
X328727Y500634D01*
X189433Y500634D01*
X189147Y500690D01*
X188894Y500857D01*
X176217Y513534D01*
X176054Y513776D01*
X175994Y514073D01*
X175994Y514742D01*
X174722Y517812D01*
X172372Y520162D01*
X169302Y521434D01*
X165978Y521434D01*
X162908Y520162D01*
X160558Y517812D01*
X159286Y514742D01*
X159286Y511418D01*
X160558Y508348D01*
X161758Y507147D01*
X161916Y506917D01*
X161981Y506621D01*
X161926Y506323D01*
X161758Y506070D01*
X161626Y505937D01*
X161384Y505774D01*
X161087Y505714D01*
X130923Y505714D01*
X98806Y473597D01*
X98806Y308114D01*
X98753Y307834D01*
X98587Y307580D01*
X98336Y307410D01*
X96868Y306802D01*
X94518Y304452D01*
X93246Y301382D01*
X93246Y298058D01*
X94518Y294988D01*
X96868Y292638D01*
X99938Y291366D01*
G37*
G36*
X53014Y455490D02*
X58746Y455490D01*
X64043Y457684D01*
X68096Y461737D01*
X70290Y467034D01*
X70290Y472766D01*
X68096Y478063D01*
X64043Y482116D01*
X58746Y484310D01*
X53014Y484310D01*
X47717Y482116D01*
X43664Y478063D01*
X41470Y472766D01*
X41470Y467034D01*
X43664Y461737D01*
X47717Y457684D01*
X53014Y455490D01*
G37*
G36*
X221815Y461328D02*
X225225Y461328D01*
X228376Y462633D01*
X230787Y465044D01*
X232092Y468195D01*
X232092Y471605D01*
X230787Y474756D01*
X228376Y477167D01*
X225225Y478472D01*
X221815Y478472D01*
X218664Y477167D01*
X216253Y474756D01*
X214948Y471605D01*
X214948Y468195D01*
X216253Y465044D01*
X218664Y462633D01*
X221815Y461328D01*
G37*
G36*
X323415Y461328D02*
X326825Y461328D01*
X329976Y462633D01*
X332387Y465044D01*
X333692Y468195D01*
X333692Y471605D01*
X332387Y474756D01*
X329976Y477167D01*
X326825Y478472D01*
X323415Y478472D01*
X320264Y477167D01*
X317853Y474756D01*
X316548Y471605D01*
X316548Y468195D01*
X317853Y465044D01*
X320264Y462633D01*
X323415Y461328D01*
G37*
G36*
X259958Y359946D02*
X263282Y359946D01*
X266352Y361218D01*
X268702Y363568D01*
X269974Y366638D01*
X269974Y369962D01*
X268702Y373032D01*
X266352Y375382D01*
X263282Y376654D01*
X259958Y376654D01*
X258491Y376046D01*
X258211Y375988D01*
X257913Y376044D01*
X257660Y376211D01*
X235871Y398000D01*
X235708Y398242D01*
X235648Y398539D01*
X235648Y398724D01*
X201137Y433234D01*
X200974Y433476D01*
X200914Y433773D01*
X200914Y458357D01*
X199277Y459994D01*
X136093Y459994D01*
X135807Y460050D01*
X135554Y460217D01*
X129831Y465940D01*
X129671Y466176D01*
X129608Y466473D01*
X129666Y466771D01*
X130274Y468238D01*
X130274Y471562D01*
X129002Y474632D01*
X126652Y476982D01*
X123582Y478254D01*
X120258Y478254D01*
X117188Y476982D01*
X114838Y474632D01*
X113566Y471562D01*
X113566Y468238D01*
X114838Y465168D01*
X117188Y462818D01*
X120258Y461546D01*
X123582Y461546D01*
X125050Y462154D01*
X125329Y462212D01*
X125627Y462156D01*
X125880Y461989D01*
X133463Y454406D01*
X194564Y454406D01*
X194839Y454355D01*
X195094Y454191D01*
X195266Y453941D01*
X195326Y453644D01*
X195326Y431143D01*
X222896Y403573D01*
X223049Y403353D01*
X223119Y403058D01*
X223068Y402759D01*
X222905Y402504D01*
X222655Y402332D01*
X222357Y402272D01*
X221815Y402272D01*
X218664Y400967D01*
X216253Y398556D01*
X214948Y395405D01*
X214948Y391995D01*
X216253Y388844D01*
X218664Y386433D01*
X221815Y385128D01*
X225225Y385128D01*
X228376Y386433D01*
X230787Y388844D01*
X232092Y391995D01*
X232092Y392037D01*
X232139Y392300D01*
X232298Y392558D01*
X232546Y392734D01*
X232842Y392799D01*
X233140Y392743D01*
X233393Y392576D01*
X253709Y372260D01*
X253869Y372024D01*
X253932Y371727D01*
X253874Y371430D01*
X253266Y369962D01*
X253266Y366638D01*
X254538Y363568D01*
X256888Y361218D01*
X259958Y359946D01*
G37*
G36*
X53078Y412160D02*
X68842Y412160D01*
X70032Y413350D01*
X70032Y429114D01*
X68842Y430304D01*
X53078Y430304D01*
X51888Y429114D01*
X51888Y413350D01*
X53078Y412160D01*
G37*
G36*
X423026Y260632D02*
X426350Y260632D01*
X429420Y261904D01*
X431770Y264254D01*
X433042Y267324D01*
X433042Y270648D01*
X431770Y273718D01*
X429420Y276068D01*
X426350Y277340D01*
X423026Y277340D01*
X421813Y276837D01*
X421533Y276779D01*
X421235Y276835D01*
X420982Y277002D01*
X420028Y277956D01*
X419865Y278198D01*
X419805Y278495D01*
X419805Y396214D01*
X419858Y396494D01*
X420024Y396749D01*
X420275Y396918D01*
X421489Y397421D01*
X423839Y399771D01*
X425111Y402841D01*
X425111Y406165D01*
X423839Y409235D01*
X421489Y411585D01*
X418419Y412857D01*
X415095Y412857D01*
X412025Y411585D01*
X409675Y409235D01*
X408403Y406165D01*
X408403Y402841D01*
X409675Y399771D01*
X412025Y397421D01*
X413239Y396918D01*
X413477Y396761D01*
X413649Y396511D01*
X413709Y396214D01*
X413709Y275654D01*
X416672Y272692D01*
X416832Y272456D01*
X416895Y272159D01*
X416837Y271862D01*
X416334Y270648D01*
X416334Y267324D01*
X417606Y264254D01*
X419956Y261904D01*
X423026Y260632D01*
G37*
G36*
X59155Y387160D02*
X62765Y387160D01*
X66099Y388541D01*
X68651Y391093D01*
X70032Y394427D01*
X70032Y398037D01*
X68651Y401371D01*
X66099Y403923D01*
X62765Y405304D01*
X59155Y405304D01*
X55821Y403923D01*
X53269Y401371D01*
X51888Y398037D01*
X51888Y394427D01*
X53269Y391093D01*
X55821Y388541D01*
X59155Y387160D01*
G37*
G36*
X348815Y385128D02*
X352225Y385128D01*
X355376Y386433D01*
X357787Y388844D01*
X359092Y391995D01*
X359092Y395405D01*
X357787Y398556D01*
X355376Y400967D01*
X352225Y402272D01*
X348815Y402272D01*
X345664Y400967D01*
X343253Y398556D01*
X341948Y395405D01*
X341948Y391995D01*
X343253Y388844D01*
X345664Y386433D01*
X348815Y385128D01*
G37*
G36*
X323415Y385128D02*
X326825Y385128D01*
X329976Y386433D01*
X332387Y388844D01*
X333692Y391995D01*
X333692Y395405D01*
X332387Y398556D01*
X329976Y400967D01*
X326825Y402272D01*
X323415Y402272D01*
X320264Y400967D01*
X317853Y398556D01*
X316548Y395405D01*
X316548Y391995D01*
X317853Y388844D01*
X320264Y386433D01*
X323415Y385128D01*
G37*
G36*
X120258Y225326D02*
X123582Y225326D01*
X126652Y226598D01*
X129002Y228948D01*
X130274Y232018D01*
X130274Y235342D01*
X129666Y236810D01*
X129608Y237089D01*
X129664Y237387D01*
X129831Y237640D01*
X153334Y261143D01*
X153576Y261306D01*
X153873Y261366D01*
X318360Y261366D01*
X398354Y341360D01*
X398591Y341521D01*
X398887Y341584D01*
X399185Y341526D01*
X400653Y340918D01*
X403976Y340918D01*
X407047Y342189D01*
X409397Y344539D01*
X410668Y347610D01*
X410668Y350933D01*
X409397Y354004D01*
X407047Y356354D01*
X403976Y357626D01*
X400653Y357626D01*
X397582Y356354D01*
X395232Y354004D01*
X393960Y350933D01*
X393960Y347610D01*
X394568Y346142D01*
X394626Y345863D01*
X394571Y345565D01*
X394403Y345312D01*
X316269Y267177D01*
X316027Y267014D01*
X315730Y266954D01*
X151243Y266954D01*
X125880Y241591D01*
X125644Y241431D01*
X125347Y241368D01*
X125050Y241426D01*
X123582Y242034D01*
X120258Y242034D01*
X117188Y240762D01*
X114838Y238412D01*
X113566Y235342D01*
X113566Y232018D01*
X114838Y228948D01*
X117188Y226598D01*
X120258Y225326D01*
G37*
G36*
X53014Y328490D02*
X58746Y328490D01*
X64043Y330684D01*
X68096Y334737D01*
X70290Y340034D01*
X70290Y345766D01*
X68096Y351063D01*
X64043Y355116D01*
X58746Y357310D01*
X53014Y357310D01*
X47717Y355116D01*
X43664Y351063D01*
X41470Y345766D01*
X41470Y340034D01*
X43664Y334737D01*
X47717Y330684D01*
X53014Y328490D01*
G37*
G36*
X516498Y193068D02*
X519822Y193068D01*
X522892Y194340D01*
X525242Y196690D01*
X525850Y198158D01*
X526007Y198396D01*
X526257Y198568D01*
X526554Y198628D01*
X529477Y198628D01*
X538734Y207885D01*
X538734Y245505D01*
X502045Y282194D01*
X466293Y282194D01*
X466007Y282250D01*
X465754Y282417D01*
X447331Y300840D01*
X447171Y301076D01*
X447108Y301373D01*
X447166Y301671D01*
X447774Y303138D01*
X447774Y306462D01*
X446502Y309532D01*
X444152Y311882D01*
X441082Y313154D01*
X437758Y313154D01*
X434688Y311882D01*
X432338Y309532D01*
X431066Y306462D01*
X431066Y303138D01*
X432338Y300068D01*
X434688Y297718D01*
X437758Y296446D01*
X441082Y296446D01*
X442550Y297054D01*
X442829Y297112D01*
X443127Y297056D01*
X443380Y296889D01*
X463663Y276606D01*
X499415Y276606D01*
X499701Y276550D01*
X499954Y276383D01*
X532923Y243414D01*
X533086Y243172D01*
X533146Y242875D01*
X533146Y210515D01*
X533090Y210229D01*
X532923Y209976D01*
X527386Y204439D01*
X527144Y204276D01*
X526847Y204216D01*
X526554Y204216D01*
X526274Y204269D01*
X526020Y204435D01*
X525850Y204686D01*
X525242Y206154D01*
X522892Y208504D01*
X519822Y209776D01*
X516498Y209776D01*
X513428Y208504D01*
X511078Y206154D01*
X509806Y203084D01*
X509806Y199760D01*
X511078Y196690D01*
X513428Y194340D01*
X516498Y193068D01*
G37*
G36*
X280342Y286004D02*
X290120Y286004D01*
X290120Y295782D01*
X288785Y295782D01*
X284912Y294177D01*
X281947Y291212D01*
X280342Y287339D01*
X280342Y286004D01*
G37*
G36*
X291644Y286004D02*
X301422Y286004D01*
X301422Y287339D01*
X299817Y291212D01*
X296852Y294177D01*
X292979Y295782D01*
X291644Y295782D01*
X291644Y286004D01*
G37*
G36*
X358887Y275210D02*
X362878Y275210D01*
X366565Y276737D01*
X369387Y279559D01*
X370914Y283247D01*
X370914Y287238D01*
X369387Y290925D01*
X366565Y293747D01*
X362878Y295274D01*
X358887Y295274D01*
X355199Y293747D01*
X352377Y290925D01*
X350850Y287238D01*
X350850Y283247D01*
X352377Y279559D01*
X355199Y276737D01*
X358887Y275210D01*
G37*
G36*
X291644Y274702D02*
X292979Y274702D01*
X296852Y276307D01*
X299817Y279272D01*
X301422Y283145D01*
X301422Y284480D01*
X291644Y284480D01*
X291644Y274702D01*
G37*
G36*
X288785Y274702D02*
X290120Y274702D01*
X290120Y284480D01*
X280342Y284480D01*
X280342Y283145D01*
X281947Y279272D01*
X284912Y276307D01*
X288785Y274702D01*
G37*
G36*
X274436Y214912D02*
X277760Y214912D01*
X280830Y216184D01*
X283180Y218534D01*
X284452Y221604D01*
X284452Y224928D01*
X283180Y227998D01*
X280830Y230348D01*
X277760Y231620D01*
X274436Y231620D01*
X273520Y231241D01*
X273241Y231183D01*
X272943Y231238D01*
X272690Y231406D01*
X262437Y241658D01*
X262277Y241894D01*
X262214Y242191D01*
X262272Y242488D01*
X262354Y242686D01*
X262354Y246010D01*
X261082Y249080D01*
X258732Y251430D01*
X255662Y252702D01*
X252338Y252702D01*
X249268Y251430D01*
X246918Y249080D01*
X245646Y246010D01*
X245646Y242686D01*
X246918Y239616D01*
X249268Y237266D01*
X252338Y235994D01*
X255662Y235994D01*
X255860Y236076D01*
X256139Y236134D01*
X256437Y236078D01*
X256690Y235911D01*
X267521Y225080D01*
X267684Y224838D01*
X267744Y224541D01*
X267744Y221604D01*
X269016Y218534D01*
X271366Y216184D01*
X274436Y214912D01*
G37*
G36*
X319720Y161290D02*
X328238Y161290D01*
X328238Y169808D01*
X327154Y169808D01*
X323743Y168395D01*
X321133Y165785D01*
X319720Y162374D01*
X319720Y161290D01*
G37*
G36*
X329762Y161290D02*
X338280Y161290D01*
X338280Y162374D01*
X336867Y165785D01*
X334257Y168395D01*
X330846Y169808D01*
X329762Y169808D01*
X329762Y161290D01*
G37*
G36*
X302255Y151756D02*
X305745Y151756D01*
X308969Y153091D01*
X311437Y155559D01*
X312772Y158783D01*
X312772Y162273D01*
X311437Y165497D01*
X308969Y167965D01*
X305745Y169300D01*
X302255Y169300D01*
X299031Y167965D01*
X296563Y165497D01*
X295228Y162273D01*
X295228Y158783D01*
X296563Y155559D01*
X299031Y153091D01*
X302255Y151756D01*
G37*
G36*
X277255Y151756D02*
X280745Y151756D01*
X283969Y153091D01*
X286437Y155559D01*
X287772Y158783D01*
X287772Y162273D01*
X286437Y165497D01*
X283969Y167965D01*
X280745Y169300D01*
X277255Y169300D01*
X274031Y167965D01*
X271563Y165497D01*
X270228Y162273D01*
X270228Y158783D01*
X271563Y155559D01*
X274031Y153091D01*
X277255Y151756D01*
G37*
G36*
X252255Y151756D02*
X255745Y151756D01*
X258969Y153091D01*
X261437Y155559D01*
X262772Y158783D01*
X262772Y162273D01*
X261437Y165497D01*
X258969Y167965D01*
X255745Y169300D01*
X252255Y169300D01*
X249031Y167965D01*
X246563Y165497D01*
X245228Y162273D01*
X245228Y158783D01*
X246563Y155559D01*
X249031Y153091D01*
X252255Y151756D01*
G37*
G36*
X329762Y151248D02*
X330846Y151248D01*
X334257Y152661D01*
X336867Y155271D01*
X338280Y158682D01*
X338280Y159766D01*
X329762Y159766D01*
X329762Y151248D01*
G37*
G36*
X327154Y151248D02*
X328238Y151248D01*
X328238Y159766D01*
X319720Y159766D01*
X319720Y158682D01*
X321133Y155271D01*
X323743Y152661D01*
X327154Y151248D01*
G37*
%LPD*%
D10*
X368300Y533400D03*
X317500Y533400D03*
X266700Y533400D03*
X215900Y533400D03*
D11*
X290882Y285242D03*
X360882Y285242D03*
D12*
X254000Y160528D03*
X279000Y160528D03*
X304000Y160528D03*
X329000Y160528D03*
D13*
X223520Y393700D03*
X325120Y393700D03*
X350520Y393700D03*
X350520Y469900D03*
X325120Y469900D03*
X223520Y469900D03*
D14*
X434848Y547116D02*
X434848Y562356D01*
X460248Y562356D02*
X460248Y547116D01*
D15*
X60960Y421232D03*
D16*
X60960Y396232D03*
D17*
X223520Y444500D03*
X477520Y508000D03*
D18*
X351020Y444500D02*
X223520Y444500D01*
X360870Y462606D02*
X386040Y487776D01*
X360870Y454350D02*
X351020Y444500D01*
X360870Y454350D02*
X360870Y462606D01*
X402364Y468664D02*
X407704Y463324D01*
X415256Y463324D01*
X402364Y468664D02*
X402364Y471452D01*
X386040Y487776D01*
X466316Y496796D02*
X477520Y508000D01*
X466316Y496796D02*
X412728Y496796D01*
X463584Y458244D02*
X471136Y458244D01*
X476476Y463584D01*
X476476Y471136D01*
X418248Y466316D02*
X415256Y463324D01*
X418248Y466316D02*
X455512Y466316D01*
X463584Y458244D01*
X433020Y476504D02*
X412728Y496796D01*
X471108Y476504D02*
X476476Y471136D01*
X471108Y476504D02*
X433020Y476504D01*
D17*
X426720Y457200D03*
X426720Y450216D03*
X83820Y559336D03*
X121019Y393700D03*
X198120Y342900D03*
X109220Y215900D03*
X172720Y436880D03*
X182880Y441960D03*
X238760Y365760D03*
X161659Y378460D03*
X510540Y244602D03*
X417158Y186182D03*
X419100Y173482D03*
X355600Y497840D03*
D19*
X386080Y497840D01*
X411480Y472440D01*
D17*
X411480Y472440D03*
D20*
X462280Y472440D01*
X467360Y467360D01*
D17*
X467360Y467360D03*
X254000Y244348D03*
D21*
X275082Y223266D01*
X276098Y223266D01*
D17*
X276098Y223266D03*
D18*
X152400Y264160D02*
X121920Y233680D01*
D17*
X121920Y233680D03*
X402314Y349272D03*
D18*
X317203Y264160D01*
X152400Y264160D01*
D17*
X101600Y299720D03*
D18*
X101600Y472440D01*
X132080Y502920D01*
X162560Y502920D01*
X167640Y508000D01*
X167640Y513080D01*
D17*
X167640Y513080D03*
D18*
X172720Y513080D01*
X187960Y497840D01*
X330200Y497840D01*
X340360Y508000D01*
X447040Y508000D01*
D17*
X447040Y508000D03*
X261620Y368300D03*
D18*
X232854Y397066D01*
X232854Y397566D01*
X198120Y432300D02*
X198120Y457200D01*
X198120Y432300D02*
X232854Y397566D01*
X198120Y457200D02*
X134620Y457200D01*
X121920Y469900D01*
D17*
X121920Y469900D03*
X424688Y268986D03*
X416757Y404503D03*
D22*
X416757Y276917D01*
X424688Y268986D01*
D17*
X187960Y370840D03*
X375920Y421640D03*
D18*
X375920Y381000D01*
X325120Y330200D01*
X243840Y330200D01*
X203200Y370840D01*
X187960Y370840D01*
D17*
X174244Y397002D03*
D18*
X168402Y391160D01*
X157480Y391160D01*
X152400Y386080D01*
X152400Y365760D01*
X167640Y350520D01*
X182880Y350520D01*
X187960Y355600D01*
X187960Y370840D01*
D17*
X439420Y304800D03*
D18*
X464820Y279400D01*
X500888Y279400D01*
X535940Y244348D01*
X535940Y209042D01*
X528320Y201422D01*
X518160Y201422D01*
D17*
X518160Y201422D03*
X193040Y386080D03*
X370840Y447040D03*
D18*
X335280Y411480D01*
X304800Y411480D01*
X284480Y391160D01*
X284480Y345440D01*
X279400Y340360D01*
X248920Y340360D01*
X203200Y386080D01*
X193040Y386080D01*
D17*
X496570Y532638D03*
D18*
X496570Y501650D01*
X482600Y487680D01*
X447040Y487680D01*
D17*
X447040Y487680D03*
M02*
