G04 EAGLE Gerber RS-274X export*
G75*
%MOMM*%
%FSLAX34Y34*%
%LPD*%
%INSoldermask Top*%
%IPPOS*%
%AMOC8*
5,1,8,0,0,1.08239X$1,22.5*%
G01*
G04 Define Apertures*
%ADD10C,3.203200*%
%ADD11R,0.903200X0.703200*%
%ADD12R,1.389600X0.800300*%
%ADD13R,2.172600X0.795400*%
%ADD14R,1.603200X2.103200*%
%ADD15R,2.003200X1.603200*%
%ADD16R,1.003200X1.703200*%
%ADD17C,2.003200*%
%ADD18C,1.803200*%
%ADD19R,0.738300X0.847200*%
%ADD20R,2.003200X1.003200*%
%ADD21C,1.053200*%
%ADD22C,1.551200*%
%ADD23C,1.511200*%
%ADD24R,1.676400X0.558800*%
%ADD25R,0.763200X0.832300*%
%ADD26C,0.482600*%
%ADD27R,0.832300X0.763200*%
%ADD28R,0.847200X0.738300*%
%ADD29C,1.727200*%
%ADD30R,1.611200X1.611200*%
%ADD31C,1.611200*%
%ADD32R,2.203200X2.203200*%
%ADD33C,0.959600*%
D10*
X540362Y549608D03*
X536942Y166225D03*
D11*
X61535Y556322D03*
X52535Y556322D03*
X60380Y533400D03*
X51380Y533400D03*
X60380Y508000D03*
X51380Y508000D03*
D12*
X439476Y185522D03*
X439476Y176022D03*
X439476Y166522D03*
X464764Y166522D03*
X464764Y185522D03*
D13*
X442624Y258572D03*
X442624Y245872D03*
X442624Y233172D03*
X442624Y220472D03*
X492096Y220472D03*
X492096Y233172D03*
X492096Y245872D03*
X492096Y258572D03*
D14*
X67810Y160978D03*
X199310Y150978D03*
D15*
X83810Y292478D03*
X140810Y292478D03*
D16*
X130710Y189478D03*
X108710Y189478D03*
X86710Y189478D03*
X75710Y189478D03*
X152710Y189478D03*
X141710Y193478D03*
X119710Y187478D03*
X97710Y187478D03*
D17*
X368300Y533400D03*
X317500Y533400D03*
X266700Y533400D03*
X215900Y533400D03*
D18*
X290882Y285242D03*
X360882Y285242D03*
D19*
X139695Y533400D03*
X129545Y533400D03*
X114295Y547542D03*
X104145Y547542D03*
X114295Y508000D03*
X104145Y508000D03*
D20*
X55880Y487400D03*
X55880Y452400D03*
D21*
X55880Y469900D03*
D22*
X254000Y160528D03*
X279000Y160528D03*
X304000Y160528D03*
X329000Y160528D03*
D23*
X223520Y393700D03*
X325120Y393700D03*
X350520Y393700D03*
X350520Y469900D03*
X325120Y469900D03*
X223520Y469900D03*
D24*
X448310Y473750D03*
X448310Y467250D03*
X448310Y460750D03*
X448310Y454250D03*
X448310Y447750D03*
X448310Y441250D03*
X448310Y434750D03*
X448310Y428250D03*
X448310Y421750D03*
X448310Y415250D03*
X506730Y415250D03*
X506730Y421750D03*
X506730Y428250D03*
X506730Y434750D03*
X506730Y441250D03*
X506730Y447750D03*
X506730Y454250D03*
X506730Y460750D03*
X506730Y467250D03*
X506730Y473750D03*
D25*
X410895Y457200D03*
X401203Y457200D03*
X398292Y179578D03*
X388600Y179578D03*
D26*
X177721Y414099D03*
X172720Y414099D03*
X167719Y414099D03*
X177721Y419100D03*
X172720Y419100D03*
X167719Y419100D03*
X177721Y424101D03*
X172720Y424101D03*
X167719Y424101D03*
D27*
X147320Y426954D03*
X147320Y436646D03*
X172720Y449814D03*
X172720Y459506D03*
D19*
X228595Y368300D03*
X218445Y368300D03*
D28*
X210820Y325125D03*
X210820Y335275D03*
D19*
X170185Y378460D03*
X180335Y378460D03*
X129545Y393700D03*
X139695Y393700D03*
D28*
X198120Y360675D03*
X198120Y350525D03*
D20*
X55880Y360400D03*
X55880Y325400D03*
D21*
X55880Y342900D03*
D28*
X121920Y337825D03*
X121920Y347975D03*
D25*
X151535Y414020D03*
X141843Y414020D03*
X219944Y219456D03*
X229636Y219456D03*
D29*
X434848Y547116D02*
X434848Y562356D01*
X460248Y562356D02*
X460248Y547116D01*
D30*
X60960Y421232D03*
D31*
X60960Y396232D03*
D32*
X397510Y203200D03*
X145288Y479044D03*
X403860Y435864D03*
D33*
X223520Y444500D03*
X477520Y508000D03*
X426720Y457200D03*
X426720Y450216D03*
X83820Y559336D03*
X121019Y393700D03*
X198120Y342900D03*
X109220Y215900D03*
X172720Y436880D03*
X182880Y441960D03*
X238760Y365760D03*
X161659Y378460D03*
X510540Y244602D03*
X417158Y186182D03*
X419100Y173482D03*
X355600Y497840D03*
X411480Y472440D03*
X467360Y467360D03*
X254000Y244348D03*
X276098Y223266D03*
X121920Y233680D03*
X402314Y349272D03*
X101600Y299720D03*
X167640Y513080D03*
X447040Y508000D03*
X261620Y368300D03*
X121920Y469900D03*
X424688Y268986D03*
X416757Y404503D03*
X187960Y370840D03*
X375920Y421640D03*
X174244Y397002D03*
X439420Y304800D03*
X518160Y201422D03*
X193040Y386080D03*
X370840Y447040D03*
X496570Y532638D03*
X447040Y487680D03*
M02*
