G04 EAGLE Gerber RS-274X export*
G75*
%MOMM*%
%FSLAX34Y34*%
%LPD*%
%INSolderpaste Top*%
%IPPOS*%
%AMOC8*
5,1,8,0,0,1.08239X$1,22.5*%
G01*
G04 Define Apertures*
%ADD10R,0.700000X0.500000*%
%ADD11R,1.186400X0.597100*%
%ADD12R,1.969400X0.592200*%
%ADD13R,1.400000X1.900000*%
%ADD14R,1.800000X1.400000*%
%ADD15R,0.800000X1.500000*%
%ADD16R,0.535100X0.644000*%
%ADD17R,1.800000X0.800000*%
%ADD18R,1.473200X0.355600*%
%ADD19R,0.560000X0.629100*%
%ADD20C,0.279400*%
%ADD21R,0.629100X0.560000*%
%ADD22R,0.644000X0.535100*%
D10*
X61535Y556322D03*
X52535Y556322D03*
X60380Y533400D03*
X51380Y533400D03*
X60380Y508000D03*
X51380Y508000D03*
D11*
X439476Y185522D03*
X439476Y176022D03*
X439476Y166522D03*
X464764Y166522D03*
X464764Y185522D03*
D12*
X442624Y258572D03*
X442624Y245872D03*
X442624Y233172D03*
X442624Y220472D03*
X492096Y220472D03*
X492096Y233172D03*
X492096Y245872D03*
X492096Y258572D03*
D13*
X67810Y160978D03*
X199310Y150978D03*
D14*
X83810Y292478D03*
X140810Y292478D03*
D15*
X130710Y189478D03*
X108710Y189478D03*
X86710Y189478D03*
X75710Y189478D03*
X152710Y189478D03*
X141710Y193478D03*
X119710Y187478D03*
X97710Y187478D03*
D16*
X139695Y533400D03*
X129545Y533400D03*
X114295Y547542D03*
X104145Y547542D03*
X114295Y508000D03*
X104145Y508000D03*
D17*
X55880Y487400D03*
X55880Y452400D03*
D18*
X448310Y473750D03*
X448310Y467250D03*
X448310Y460750D03*
X448310Y454250D03*
X448310Y447750D03*
X448310Y441250D03*
X448310Y434750D03*
X448310Y428250D03*
X448310Y421750D03*
X448310Y415250D03*
X506730Y415250D03*
X506730Y421750D03*
X506730Y428250D03*
X506730Y434750D03*
X506730Y441250D03*
X506730Y447750D03*
X506730Y454250D03*
X506730Y460750D03*
X506730Y467250D03*
X506730Y473750D03*
D19*
X410895Y457200D03*
X401203Y457200D03*
X398292Y179578D03*
X388600Y179578D03*
D20*
X177721Y414099D03*
X172720Y414099D03*
X167719Y414099D03*
X177721Y419100D03*
X172720Y419100D03*
X167719Y419100D03*
X177721Y424101D03*
X172720Y424101D03*
X167719Y424101D03*
D21*
X147320Y426954D03*
X147320Y436646D03*
X172720Y449814D03*
X172720Y459506D03*
D16*
X228595Y368300D03*
X218445Y368300D03*
D22*
X210820Y325125D03*
X210820Y335275D03*
D16*
X170185Y378460D03*
X180335Y378460D03*
X129545Y393700D03*
X139695Y393700D03*
D22*
X198120Y360675D03*
X198120Y350525D03*
D17*
X55880Y360400D03*
X55880Y325400D03*
D22*
X121920Y337825D03*
X121920Y347975D03*
D19*
X151535Y414020D03*
X141843Y414020D03*
X219944Y219456D03*
X229636Y219456D03*
M02*
