M48
;GenerationSoftware,Autodesk,EAGLE,9.7.0*%
;CreationDate,2024-09-29T11:45:02Z*%
FMAT,2
ICI,OFF
METRIC,TZ,000.000
T9C0.350
T8C0.800
T7C0.840
T6C0.850
T5C0.900
T4C1.000
T3C1.016
T2C1.200
T1C3.000
%
G90
M71
T1
X54036Y54961
X53694Y16623
T2
X36830Y53340
X31750Y53340
X26670Y53340
X21590Y53340
T3
X43485Y55474
X46025Y55474
T4
X29088Y28524
X36088Y28524
T5
X6096Y39623
X6096Y42123
T6
X5588Y46990
X5588Y34290
T7
X25400Y16053
X27900Y16053
X30400Y16053
X32900Y16053
T8
X22352Y39370
X32512Y39370
X35052Y46990
X32512Y46990
X22352Y46990
X35052Y39370
T9
X16764Y51308
X26162Y36830
X12192Y46990
X42469Y26899
X41676Y40450
X18796Y37084
X37592Y42164
X10922Y21590
X43942Y30480
X51816Y20142
X19304Y38608
X37084Y44704
X49657Y53264
X44704Y48768
X17424Y39700
X22352Y44450
X47752Y50800
X42672Y45720
X42672Y45022
X8382Y55934
X12102Y39370
X19812Y34290
X17272Y43688
X18288Y44196
X23876Y36576
X16166Y37846
X51054Y24460
X41716Y18618
X41910Y17348
X35560Y49784
X44704Y50800
X41148Y47244
X46736Y46736
X25400Y24435
X27610Y22327
X12192Y23368
X40231Y34927
X10160Y29972
M30